<svg width="20" height="20" viewBox="0 0 20 20" fill="none" xmlns="http://www.w3.org/2000/svg">
<path d="M14.25 2.75V0.75M5.25 2.75V0.75M1 5.75H18.5M0.75 7.794C0.75 5.679 0.75 4.621 1.186 3.813C1.58025 3.09231 2.19199 2.5145 2.934 2.162C3.79 1.75 4.91 1.75 7.15 1.75H12.35C14.59 1.75 15.71 1.75 16.566 2.162C17.319 2.524 17.93 3.102 18.314 3.812C18.75 4.622 18.75 5.68 18.75 7.795V12.707C18.75 14.822 18.75 15.88 18.314 16.688C17.9198 17.4087 17.308 17.9865 16.566 18.339C15.71 18.75 14.59 18.75 12.35 18.75H7.15C4.91 18.75 3.79 18.75 2.934 18.338C2.19214 17.9858 1.58041 17.4083 1.186 16.688C0.75 15.878 0.75 14.82 0.75 12.705V7.794Z" stroke="#E5E7EB" stroke-width="1.5" stroke-linecap="round" stroke-linejoin="round"/>
</svg>
