<svg width="14" height="14" viewBox="0 0 14 14" fill="none" xmlns="http://www.w3.org/2000/svg">
<path fill-rule="evenodd" clip-rule="evenodd" d="M13.9586 0.848222C14.0017 0.735493 14.0112 0.612694 13.9861 0.494658C13.9609 0.376623 13.9021 0.268399 13.8167 0.183058C13.7314 0.0977181 13.6232 0.0389119 13.5051 0.0137425C13.3871 -0.011427 13.2643 -0.00188288 13.1516 0.0412219L0.401572 4.91622C0.285336 4.96049 0.184952 5.03844 0.113266 5.14008C0.0415808 5.24173 0.00185373 5.36245 -0.000830907 5.4868C-0.00351554 5.61116 0.0309643 5.73348 0.0981964 5.83813C0.165429 5.94277 0.262355 6.02498 0.376572 6.07422L5.64957 8.35022L7.92557 13.6232C7.97482 13.7374 8.05702 13.8344 8.16167 13.9016C8.26631 13.9688 8.38864 14.0033 8.51299 14.0006C8.63734 13.9979 8.75807 13.9582 8.85971 13.8865C8.96136 13.8148 9.0393 13.7145 9.08357 13.5982L13.9586 0.848222ZM5.85857 7.08022L2.28357 5.53522L12.2926 1.70822L8.46557 11.7172L6.91957 8.14022L9.40457 5.65522C9.53705 5.51305 9.60918 5.325 9.60575 5.1307C9.60232 4.9364 9.52361 4.75101 9.38619 4.6136C9.24878 4.47619 9.0634 4.39747 8.86909 4.39405C8.67479 4.39062 8.48675 4.46274 8.34457 4.59522L5.85857 7.08022Z" fill="#E5E7EB"/>
</svg>
