<svg width="34" height="33" viewBox="0 0 34 33" fill="none" xmlns="http://www.w3.org/2000/svg">
<path d="M10.3333 8.66667V5.33333C10.3333 4.44928 10.6845 3.60143 11.3096 2.97631C11.9348 2.35119 12.7826 2 13.6667 2H20.3333C21.2174 2 22.0652 2.35119 22.6904 2.97631C23.3155 3.60143 23.6667 4.44928 23.6667 5.33333V8.66667M17 17V17.0167M2 12C2 11.1159 2.35119 10.2681 2.97631 9.64298C3.60143 9.01786 4.44928 8.66667 5.33333 8.66667H28.6667C29.5507 8.66667 30.3986 9.01786 31.0237 9.64298C31.6488 10.2681 32 11.1159 32 12V27C32 27.8841 31.6488 28.7319 31.0237 29.357C30.3986 29.9821 29.5507 30.3333 28.6667 30.3333H5.33333C4.44928 30.3333 3.60143 29.9821 2.97631 29.357C2.35119 28.7319 2 27.8841 2 27V12Z" stroke="#654F4B" stroke-width="4" stroke-linecap="round" stroke-linejoin="round"/>
<path d="M2 18.6665C6.65263 21.011 11.79 22.2322 17 22.2322C22.21 22.2322 27.3474 21.011 32 18.6665" stroke="#654F4B" stroke-width="4" stroke-linecap="round" stroke-linejoin="round"/>
</svg>
