<svg width="32" height="32" viewBox="0 0 32 32" fill="none" xmlns="http://www.w3.org/2000/svg">
<path d="M27.1136 0.75H4.38636C2.37806 0.75 0.75 2.3901 0.75 4.41327V27.3087C0.75 29.3318 2.37806 30.9719 4.38636 30.9719H27.1136C29.1219 30.9719 30.75 29.3318 30.75 27.3087V4.41327C30.75 2.3901 29.1219 0.75 27.1136 0.75Z" fill="#242323" stroke="#242323" stroke-width="1.5" stroke-linecap="round" stroke-linejoin="round"/>
<path d="M24.2956 14.4873H20.6593C20.1771 14.4873 19.7146 14.6803 19.3736 15.0238C19.0326 15.3673 18.8411 15.8332 18.8411 16.3189V18.1506C18.8411 18.6364 19.0326 19.1022 19.3736 19.4457C19.7146 19.7892 20.1771 19.9822 20.6593 19.9822H22.4774C22.9597 19.9822 23.4221 20.1752 23.7631 20.5187C24.1041 20.8622 24.2956 21.3281 24.2956 21.8138V23.6455C24.2956 24.1313 24.1041 24.5971 23.7631 24.9406C23.4221 25.2841 22.9597 25.4771 22.4774 25.4771H18.8411M10.2047 14.4873V25.4771V14.4873ZM6.56836 14.4873H13.8411H6.56836Z" fill="#242323"/>
<path d="M24.2956 14.4873H20.6593C20.1771 14.4873 19.7146 14.6803 19.3736 15.0238C19.0326 15.3673 18.8411 15.8332 18.8411 16.3189V18.1506C18.8411 18.6364 19.0326 19.1022 19.3736 19.4457C19.7146 19.7892 20.1771 19.9822 20.6593 19.9822H22.4774C22.9597 19.9822 23.4221 20.1752 23.7631 20.5187C24.1041 20.8622 24.2956 21.3281 24.2956 21.8138V23.6455C24.2956 24.1313 24.1041 24.5971 23.7631 24.9406C23.4221 25.2841 22.9597 25.4771 22.4774 25.4771H18.8411M10.2047 14.4873V25.4771M6.56836 14.4873H13.8411" stroke="#EEF0E2" stroke-width="1.5" stroke-linecap="round" stroke-linejoin="round"/>
</svg>
