<svg width="65" height="65" viewBox="0 0 65 65" fill="none" xmlns="http://www.w3.org/2000/svg">
<path d="M27.82 10.0344C28.1028 10.4868 28.2936 10.9905 28.3817 11.5166C28.4698 12.0428 28.4534 12.5812 28.3335 13.101C28.2135 13.6208 27.9923 14.112 27.6826 14.5463C27.3728 14.9807 26.9805 15.3498 26.5281 15.6325C21.5837 18.7123 17.6557 23.18 15.2344 28.4781C17.6795 28.2737 20.1295 28.812 22.2637 30.0227C24.3979 31.2335 26.1169 33.0602 27.1959 35.2639C28.2749 37.4677 28.6636 39.9458 28.3111 42.374C27.9586 44.8023 26.8814 47.0676 25.2204 48.8736C23.5593 50.6796 21.3918 51.9421 19.0015 52.4961C16.6111 53.05 14.1092 52.8696 11.8231 51.9783C9.53702 51.0871 7.57316 49.5265 6.1885 47.5008C4.80384 45.4752 4.06286 43.0787 4.0625 40.625V40.5153C4.06692 40.2008 4.08046 39.8865 4.10312 39.5728C4.13969 38.9634 4.21281 38.1103 4.355 37.0622C4.63938 34.9781 5.19594 32.106 6.32125 28.8803C8.56375 22.4209 13.1056 14.4381 22.2219 8.74251C22.6743 8.45976 23.1779 8.26888 23.7041 8.18078C24.2303 8.09268 24.7687 8.10907 25.2885 8.22904C25.8083 8.349 26.2994 8.57017 26.7338 8.87994C27.1682 9.1897 27.5372 9.58198 27.82 10.0344ZM56.2575 10.0344C56.5403 10.4868 56.7311 10.9905 56.8192 11.5166C56.9073 12.0428 56.8909 12.5812 56.771 13.101C56.651 13.6208 56.4298 14.112 56.1201 14.5463C55.8103 14.9807 55.418 15.3498 54.9656 15.6325C50.0211 18.7123 46.0932 23.18 43.6719 28.4781C46.117 28.2737 48.567 28.812 50.7012 30.0227C52.8354 31.2335 54.5544 33.0602 55.6334 35.2639C56.7124 37.4677 57.1011 39.9458 56.7486 42.374C56.3961 44.8023 55.3189 47.0676 53.6579 48.8736C51.9968 50.6796 49.8293 51.9421 47.439 52.4961C45.0486 53.05 42.5467 52.8696 40.2606 51.9783C37.9745 51.0871 36.0107 49.5265 34.626 47.5008C33.2413 45.4752 32.5004 43.0787 32.5 40.625V40.5153C32.5044 40.2008 32.518 39.8865 32.5406 39.5728C32.5772 38.9634 32.6503 38.1103 32.7925 37.0622C33.0769 34.9781 33.6334 32.106 34.7587 28.8803C37.0012 22.4209 41.5431 14.4381 50.6594 8.74251C51.1118 8.45976 51.6154 8.26888 52.1416 8.18078C52.6678 8.09268 53.2062 8.10907 53.726 8.22904C54.2458 8.349 54.7369 8.57017 55.1713 8.87994C55.6057 9.1897 55.9747 9.58198 56.2575 10.0344Z" fill="#1393CA"/>
</svg>
