<svg width="25" height="27" viewBox="0 0 25 27" fill="none" xmlns="http://www.w3.org/2000/svg">
<path d="M8.88397 5.74757C9.52158 5.86522 9.34428 6.82641 8.7066 6.70876C3.64906 5.76892 0.105658 7.76751 2.78819 12.7162C3.1088 13.2782 2.25827 13.7633 1.93772 13.2012C-1.25634 7.60641 2.88539 4.61177 8.88397 5.74757ZM21.6392 15.2372C26.1603 9.70915 24.1693 5.59812 18.7333 5.53088C18.0877 5.52244 18.0758 6.49972 18.7214 6.50816C23.5332 6.48759 24.678 10.0469 20.8902 14.6075C20.4728 15.115 21.2374 15.7195 21.6392 15.2372ZM16.8837 23.9078C17.2141 23.3593 16.3914 22.848 16.045 23.4027C13.3097 27.7306 9.96634 26.3972 7.94283 21.1785C7.72407 20.5567 6.80023 20.8818 7.019 21.5035C8.80913 26.9704 13.5564 29.379 16.8837 23.9078M13.8876 14.1727C13.8876 13.1182 12.7381 12.4556 11.8235 12.9829C10.9088 13.5101 10.9088 14.8354 11.8235 15.3626C12.7381 15.8899 13.8876 15.2273 13.8876 14.1727ZM1.87095 18.6151C2.03033 14.2709 8.35905 8.7296 15.8223 6.82282C16.4631 6.68355 16.2555 5.72848 15.6146 5.8678C8.72121 7.39389 0.543237 13.5212 0.886992 18.8838C-0.307871 19.6048 -0.295425 21.3549 0.923645 22.0551C2.15495 22.7623 3.70232 21.8736 3.70232 20.4592C3.70232 19.396 2.82806 18.6298 1.87095 18.6152M22.1386 22.0024C23.0185 22.5748 24.2912 22.3127 24.8048 21.2852C25.4371 20.0205 24.4507 18.5341 23.0336 18.6162C21.7032 18.6932 20.9199 20.0995 21.4786 21.2498C17.1802 23.1197 9.19592 19.9909 4.50154 15.0173C4.07192 14.5434 3.34681 15.2005 3.77637 15.6745C8.22889 20.5974 17.276 24.5782 22.1386 22.0024ZM14.3633 1.84193C14.3637 0.632727 13.1555 -0.305053 11.9321 0.0927246C10.5823 0.53174 10.2172 2.27067 11.2766 3.21541C12.1679 4.01012 13.5099 3.7456 14.0864 2.81779C17.4266 5.02579 19.4993 12.5717 17.2908 20.5581C17.0998 21.1763 18.0356 21.4654 18.2266 20.8472C20.2335 14.3654 19.1478 4.76665 14.3633 1.84183" fill="#E5E7EB"/>
</svg>
