<svg width="33" height="25" viewBox="0 0 33 25" fill="none" xmlns="http://www.w3.org/2000/svg">
<path d="M16.5 1.5C12.5 1.5 10 3.72 9 8.16C10.5 5.96 12.26 5.12 14.24 5.66C15.4 5.98 16.2 6.9 17.1 7.92C18.58 9.58 20.3 11.5 24 11.5C28 11.5 30.5 9.28 31.5 4.84C30 7.04 28.24 7.88 26.24 7.34C25.1 7.02 24.3 6.1 23.4 5.08C21.9 3.42 20.2 1.5 16.5 1.5ZM9 13.5C5 13.5 2.5 15.72 1.5 20.16C3 17.96 4.76 17.12 6.76 17.66C7.9 17.98 8.7 18.9 9.6 19.92C11.08 21.58 12.8 23.5 16.5 23.5C20.5 23.5 23 21.28 24 16.84C22.5 19.04 20.74 19.88 18.76 19.34C17.6 19.02 16.8 18.1 15.9 17.08C14.42 15.42 12.7 13.5 9 13.5Z" stroke="#E5E7EB" stroke-width="3" stroke-linecap="round" stroke-linejoin="round"/>
</svg>
