<svg width="27" height="30" viewBox="0 0 27 30" fill="none" xmlns="http://www.w3.org/2000/svg">
<path d="M13.1761 0.000234375C12.9312 0.000234375 12.686 0.0635156 12.4666 0.190547L0.790078 6.92883L13.3596 29.9866C13.5448 29.9624 13.7235 29.9022 13.8855 29.8092L25.6441 23.0194C25.923 22.8572 26.1384 22.6052 26.2552 22.3045L13.3106 0.00867188C13.2661 0.00445313 13.2216 0 13.1766 0L13.1761 0.000234375ZM13.6214 0.0752344L21.9769 14.4635L25.9284 7.1932C25.8434 7.10909 25.7481 7.03615 25.6446 6.97617L13.886 0.191016C13.8023 0.143662 13.7139 0.105023 13.6223 0.0757031L13.6214 0.0752344ZM0.590156 7.05727C0.408044 7.18845 0.259613 7.36092 0.157031 7.56054C0.0544478 7.76017 0.000633829 7.98126 0 8.2057V21.7877C0.000729914 22.0855 0.0950155 22.3755 0.269531 22.6167L4.80703 14.7933L0.588281 7.05656L0.590156 7.05727ZM26.0902 7.38727L22.1128 14.7021L26.3386 21.9818C26.3475 21.9184 26.3521 21.854 26.3524 21.7887V8.20664C26.3517 7.91284 26.2597 7.62653 26.0892 7.38727H26.0902ZM4.93781 15.0349L0.430781 22.8045C0.514239 22.8865 0.607617 22.9579 0.70875 23.0168L12.465 29.8066C12.6575 29.9159 12.8726 29.9789 13.0936 29.9909L4.93969 15.033L4.93781 15.0349Z" fill="#654F4B"/>
</svg>
