<svg width="30" height="30" viewBox="0 0 30 30" fill="none" xmlns="http://www.w3.org/2000/svg">
<path d="M5 0.5H25C26.1935 0.5 27.3377 0.974446 28.1816 1.81836C29.0256 2.66227 29.5 3.80653 29.5 5V25C29.5 26.1935 29.0256 27.3377 28.1816 28.1816C27.3377 29.0256 26.1935 29.5 25 29.5H5C3.80653 29.5 2.66227 29.0256 1.81836 28.1816C0.974446 27.3377 0.5 26.1935 0.5 25V5C0.5 3.80653 0.974446 2.66227 1.81836 1.81836C2.66227 0.974446 3.80653 0.5 5 0.5ZM10.917 20.915C10.9159 21.6976 10.7382 22.1131 10.5195 22.3164C10.2447 22.5557 9.88994 22.6885 9.41797 22.6885C8.94363 22.6884 8.5689 22.5833 8.27148 22.3975L8.26367 22.3926L8.15137 22.3213C7.89035 22.1437 7.63266 21.8915 7.38184 21.5527L7.06934 21.1309L6.66309 21.4629L4.93945 22.875L4.6084 23.1465L4.82617 23.5156C5.3805 24.4539 6.08762 25.1404 6.95801 25.5322L6.95898 25.5332C7.74264 25.8844 8.62708 26.0537 9.60156 26.0537H9.60547C10.1811 26.0491 10.753 25.9605 11.3037 25.793L11.3047 25.7939C11.9149 25.6096 12.481 25.3021 12.9678 24.8906L12.9668 24.8896C13.8522 24.1756 14.296 23.0738 14.3799 21.6865L14.3916 21.4043V11.5781H10.917V20.915ZM20.7998 11.3584C19.3785 11.3584 18.1663 11.7244 17.2041 12.4941C16.2196 13.262 15.6963 14.2503 15.6963 15.4336V15.4395C15.7111 16.6303 16.1109 17.6135 16.9336 18.3232L16.9365 18.3262C17.7159 18.9859 18.7937 19.4991 20.1348 19.8877V19.8887C21.2181 20.2303 21.8701 20.548 22.1768 20.8154L22.1807 20.8184C22.3049 20.9245 22.4041 21.0573 22.4717 21.2061C22.5392 21.3547 22.573 21.5164 22.5713 21.6797V21.6924L22.5723 21.7061C22.5776 21.8361 22.549 21.9655 22.4893 22.0811C22.4295 22.1966 22.3405 22.2944 22.2314 22.3652L22.2197 22.373C21.946 22.5611 21.4997 22.6885 20.8164 22.6885H20.8115C19.7621 22.7002 18.6732 22.2843 17.5371 21.3691L17.127 21.0381L16.8184 21.4658L15.3877 23.4453L15.124 23.8115L15.4609 24.1113C16.9194 25.4121 18.7286 26.0537 20.8535 26.0537L20.8652 26.0527C22.4799 26.0143 23.7896 25.5966 24.7158 24.7266V24.7256C25.6287 23.8672 26.1016 22.8211 26.1016 21.6113C26.1015 20.4754 25.785 19.4978 25.1201 18.7197C24.4558 17.9425 23.3837 17.3679 21.9854 16.9521C21.0094 16.6554 20.3191 16.3913 19.8877 16.1641L19.7188 16.0684C19.3558 15.8361 19.2647 15.6226 19.2646 15.4336C19.2646 15.2621 19.3333 15.1024 19.5938 14.9414C19.869 14.7745 20.2733 14.6689 20.8457 14.668C21.3307 14.679 21.8115 14.7629 22.2715 14.917L22.2871 14.9229L22.3027 14.9268C22.8035 15.0584 23.2729 15.2906 23.6816 15.6084L24.1133 15.9443L24.4092 15.4834L25.6924 13.4854L25.9355 13.1074L25.585 12.8252C24.3499 11.831 22.7382 11.3584 20.7998 11.3584Z" fill="#242323" stroke="#242323"/>
</svg>
