<svg width="35" height="34" viewBox="0 0 35 34" fill="none" xmlns="http://www.w3.org/2000/svg">
<path d="M17.5 0C15.2019 0 12.9262 0.450635 10.803 1.32618C8.67984 2.20172 6.75066 3.48502 5.12563 5.1028C1.84374 8.37007 0 12.8014 0 17.4221C0 25.1226 5.0225 31.6559 11.97 33.973C12.845 34.1124 13.125 33.5723 13.125 33.1019V30.1576C8.2775 31.2029 7.245 27.823 7.245 27.823C6.44 25.8021 5.3025 25.262 5.3025 25.262C3.71 24.1818 5.425 24.2167 5.425 24.2167C7.175 24.3386 8.1025 26.0111 8.1025 26.0111C9.625 28.6593 12.1975 27.8753 13.195 27.4572C13.3525 26.3247 13.8075 25.5582 14.2975 25.1226C10.4125 24.6871 6.335 23.1888 6.335 16.551C6.335 14.6171 7 13.0665 8.1375 11.8296C7.9625 11.394 7.35 9.58213 8.3125 7.23015C8.3125 7.23015 9.7825 6.75976 13.125 9.0072C14.5075 8.62392 16.0125 8.43228 17.5 8.43228C18.9875 8.43228 20.4925 8.62392 21.875 9.0072C25.2175 6.75976 26.6875 7.23015 26.6875 7.23015C27.65 9.58213 27.0375 11.394 26.8625 11.8296C28 13.0665 28.665 14.6171 28.665 16.551C28.665 23.2062 24.57 24.6696 20.6675 25.1052C21.2975 25.6453 21.875 26.708 21.875 28.3283V33.1019C21.875 33.5723 22.155 34.1298 23.0475 33.973C29.995 31.6385 35 25.1226 35 17.4221C35 15.1342 34.5474 12.8687 33.6679 10.7549C32.7884 8.64118 31.4994 6.72059 29.8744 5.1028C28.2493 3.48502 26.3202 2.20172 24.197 1.32618C22.0738 0.450635 19.7981 0 17.5 0Z" fill="#E5E7EB"/>
</svg>
