<svg width="32" height="29" viewBox="0 0 32 29" fill="none" xmlns="http://www.w3.org/2000/svg">
<path d="M16.0016 17.2015C17.6108 17.2015 18.9154 15.897 18.9154 14.2878C18.9154 12.6785 17.6108 11.374 16.0016 11.374C14.3924 11.374 13.0879 12.6785 13.0879 14.2878C13.0879 15.897 14.3924 17.2015 16.0016 17.2015Z" fill="#61DAFB"/>
<path d="M27.0671 9.48243C26.5048 9.27795 25.9169 9.07348 25.3035 8.89457C25.4569 8.28115 25.5847 7.66773 25.6869 7.07987C26.2236 3.70607 25.6358 1.32907 24 0.408946C23.5144 0.127795 22.9776 0 22.3642 0C20.5751 0 18.3003 1.32907 16 3.55272C13.6997 1.32907 11.4249 0 9.63578 0C9.02236 0 8.48562 0.127795 8 0.408946C6.36422 1.35463 5.77636 3.73163 6.3131 7.07987C6.41534 7.66773 6.54313 8.28115 6.69649 8.89457C6.08307 9.07348 5.49521 9.25239 4.93291 9.48243C1.73802 10.7093 0 12.3962 0 14.2875C0 16.1789 1.76358 17.8658 4.93291 19.0927C5.49521 19.2971 6.08307 19.5016 6.69649 19.6805C6.54313 20.2939 6.41534 20.9073 6.3131 21.4952C5.77636 24.869 6.36422 27.246 8 28.1661C8.48562 28.4473 9.02236 28.5751 9.63578 28.5751C11.4505 28.5751 13.7252 27.246 16 25.0224C18.3003 27.246 20.5751 28.5751 22.3642 28.5751C22.9776 28.5751 23.5144 28.4473 24 28.1661C25.6358 27.2204 26.2236 24.8434 25.6869 21.4952C25.5847 20.9073 25.4569 20.2939 25.3035 19.6805C25.9169 19.5016 26.5048 19.3227 27.0671 19.0927C30.262 17.8658 32 16.1789 32 14.2875C32 12.3962 30.262 10.7093 27.0671 9.48243ZM23.2843 1.6869C24.3323 2.30032 24.6901 4.19169 24.2556 6.8754C24.1789 7.41214 24.0511 7.97444 23.8978 8.5623C22.5687 8.25559 21.1629 8.05112 19.6805 7.92332C18.8115 6.69648 17.9169 5.59744 17.0224 4.60064C18.9137 2.73482 20.8307 1.45687 22.3898 1.45687C22.722 1.45687 23.0288 1.53355 23.2843 1.6869ZM20.4217 16.8434C19.9617 17.6613 19.4249 18.4792 18.8626 19.2971C17.9169 19.3738 16.9712 19.3994 16 19.3994C15.0032 19.3994 14.0575 19.3738 13.1374 19.2971C12.5751 18.4792 12.0639 17.6613 11.6038 16.8434C11.1182 16 10.6581 15.131 10.2492 14.2875C10.6581 13.4441 11.1182 12.5751 11.6038 11.7316C12.0639 10.9137 12.6006 10.0958 13.1629 9.27796C14.1086 9.20128 15.0543 9.17572 16.0256 9.17572C17.0224 9.17572 17.9681 9.20128 18.8882 9.27796C19.4505 10.0958 19.9617 10.9137 20.4217 11.7316C20.9073 12.5751 21.3674 13.4441 21.7764 14.2875C21.3419 15.131 20.9073 15.9744 20.4217 16.8434ZM22.5431 16C22.9265 16.8946 23.2332 17.7636 23.5144 18.6326C22.6454 18.8371 21.7252 18.9904 20.754 19.1182C21.0607 18.6326 21.393 18.1214 21.6741 17.5847C21.9808 17.0479 22.262 16.5112 22.5431 16ZM16 22.9265C15.3866 22.262 14.7987 21.5463 14.2364 20.8051C14.8243 20.8307 15.4121 20.8562 16 20.8562C16.5879 20.8562 17.1757 20.8307 17.7636 20.8051C17.2013 21.5463 16.6134 22.262 16 22.9265ZM11.246 19.0927C10.2748 18.9649 9.35463 18.8115 8.48562 18.607C8.76677 17.7636 9.07348 16.869 9.45687 15.9744C9.73802 16.4856 10.0192 17.0224 10.3259 17.5335C10.6326 18.0958 10.9393 18.5815 11.246 19.0927ZM9.45687 12.5751C9.07348 11.6805 8.76677 10.8115 8.48562 9.94249C9.35463 9.73802 10.2748 9.58466 11.246 9.45687C10.9393 9.94249 10.607 10.4537 10.3259 10.9904C10.0192 11.5272 9.73802 12.0639 9.45687 12.5751ZM16 5.64856C16.6134 6.3131 17.2013 7.02875 17.7636 7.76997C17.1757 7.74441 16.5879 7.71885 16 7.71885C15.4121 7.71885 14.8243 7.74441 14.2364 7.76997C14.7987 7.02875 15.3866 6.3131 16 5.64856ZM21.6741 11.016L20.754 9.48243C21.7252 9.61022 22.6454 9.76358 23.5144 9.96805C23.2332 10.8115 22.9265 11.7061 22.5431 12.6006C22.262 12.0639 21.9808 11.5272 21.6741 11.016ZM7.74441 6.8754C7.3099 4.19169 7.66773 2.30032 8.71566 1.6869C8.97125 1.53355 9.27796 1.45687 9.61022 1.45687C11.1438 1.45687 13.0607 2.70926 14.9776 4.60064C14.0831 5.57188 13.1885 6.69648 12.3195 7.92332C10.8371 8.05112 9.43131 8.28115 8.10224 8.5623C7.94888 7.97444 7.84665 7.41214 7.74441 6.8754ZM1.43131 14.2875C1.43131 13.0863 2.88818 11.8083 5.44409 10.8626C5.95527 10.6581 6.51757 10.4792 7.07987 10.3259C7.48882 11.6038 8 12.9585 8.61342 14.3131C8 15.6677 7.46326 16.9968 7.07987 18.2748C3.55272 17.2524 1.43131 15.7188 1.43131 14.2875ZM8.71566 26.8882C7.66773 26.2748 7.3099 24.3834 7.74441 21.6997C7.82109 21.1629 7.94888 20.6006 8.10224 20.0128C9.43131 20.3195 10.8371 20.524 12.3195 20.6518C13.1885 21.8786 14.0831 22.9776 14.9776 23.9744C13.0863 25.8403 11.1693 27.1182 9.61022 27.1182C9.27796 27.1182 8.97125 27.0415 8.71566 26.8882ZM24.2556 21.6997C24.6901 24.3834 24.3323 26.2748 23.2843 26.8882C23.0288 27.0415 22.722 27.1182 22.3898 27.1182C20.8562 27.1182 18.9393 25.8658 17.0224 23.9744C17.9169 23.0032 18.8115 21.8786 19.6805 20.6518C21.1629 20.524 22.5687 20.2939 23.8978 20.0128C24.0511 20.6006 24.1534 21.1629 24.2556 21.6997ZM26.5559 17.7125C26.0447 17.9169 25.4824 18.0958 24.9201 18.2492C24.5112 16.9712 24 15.6166 23.3866 14.262C24 12.9073 24.5367 11.5783 24.9201 10.3003C28.4473 11.3227 30.5687 12.8562 30.5687 14.2875C30.5687 15.4888 29.0863 16.7668 26.5559 17.7125Z" fill="#61DAFB"/>
</svg>
