<svg width="40" height="40" viewBox="0 0 40 40" fill="none" xmlns="http://www.w3.org/2000/svg">
<rect width="40" height="40" rx="10" fill="#3D9F19" fill-opacity="0.65"/>
<path d="M17.1791 9.36794C18.0608 8.94629 19.0247 8.72754 20.0007 8.72754C20.9768 8.72754 21.9406 8.94629 22.8223 9.36794L31.3382 13.39C33.1913 14.2644 33.1913 17.2929 31.3382 18.1673L22.8236 22.1894C21.9417 22.6112 20.9776 22.8301 20.0013 22.8301C19.0251 22.8301 18.061 22.6112 17.1791 22.1894L8.66326 18.1673C6.81016 17.2929 6.81016 14.2644 8.66326 13.39L17.1791 9.36794Z" stroke="#67BC28" stroke-width="3"/>
<path d="M7.27344 15.7783V22.8301M28.9098 19.6248V26.1957C28.9098 27.4881 28.2696 28.6985 27.1471 29.3242C25.2774 30.3691 22.2865 31.8051 20.0007 31.8051C17.7149 31.8051 14.724 30.3678 12.8543 29.3255C11.7331 28.6985 11.0916 27.4881 11.0916 26.197V19.6248" stroke="#67BC28" stroke-width="3" stroke-linecap="round"/>
</svg>
