<svg width="30" height="31" viewBox="0 0 30 31" fill="none" xmlns="http://www.w3.org/2000/svg">
<mask id="path-1-inside-1_296_59" fill="white">
<path d="M21.5522 0C20.3512 0.0102417 19.1573 0.185472 18.0037 0.520797L17.9218 0.547147C17.1942 0.417309 16.4574 0.345783 15.7185 0.333248C14.2002 0.306898 12.8968 0.677346 11.8454 1.29114C10.8094 0.931545 8.66028 0.309998 6.39515 0.433997C4.81806 0.520797 3.09718 1.00129 1.8216 2.35134C0.549104 3.69983 -0.123477 5.78922 0.0187698 8.63035C0.0574239 9.41465 0.281618 10.6934 0.649605 12.3503C1.02068 14.0057 1.53865 15.9448 2.18649 17.7133C2.83433 19.4818 3.54557 21.0706 4.65417 22.1509C5.20924 22.6934 5.9715 23.146 6.87137 23.1088C7.5022 23.084 8.07274 22.8066 8.56442 22.3958C8.80407 22.712 9.06073 22.8515 9.29421 22.9786C9.58798 23.1398 9.87402 23.2499 10.1709 23.3227C10.7028 23.456 11.6135 23.6327 12.6803 23.4514C13.0437 23.3909 13.4271 23.2716 13.809 23.1026C13.8214 23.5289 13.8399 23.9458 13.8554 24.369C13.908 25.7066 13.942 26.9419 14.3424 28.0269C14.4074 28.2036 14.5836 29.115 15.2794 29.9195C15.9752 30.7239 17.3389 31.2292 18.8912 30.896C19.9859 30.6604 21.379 30.2372 22.3036 28.9166C23.219 27.6115 23.6318 25.7392 23.7122 22.7043C23.7308 22.5588 23.7545 22.414 23.7833 22.2703L23.9998 22.2904H24.0261C25.1949 22.3431 26.4628 22.1773 27.5219 21.6828C28.4604 21.2488 29.1701 20.8071 29.6866 20.0259C29.8629 19.7822 29.9698 19.495 29.9958 19.1951C30.0344 18.7921 29.8041 18.1628 29.4222 17.8714C28.6553 17.2871 28.1729 17.5103 27.6564 17.6172C27.1452 17.7298 26.6288 17.7929 26.1072 17.8063C27.5053 15.448 28.5714 12.9073 29.2753 10.2563C29.6355 8.8613 29.8381 7.57481 29.8551 6.44951C29.8705 5.32422 29.7793 4.32913 29.1067 3.46733C27.0055 0.774996 24.0508 0.0309999 21.7656 0.00465001H21.5522V0ZM21.4919 0.826145C23.655 0.805995 26.4164 1.41514 28.4001 3.95558C28.8454 4.52597 28.9784 5.35987 28.963 6.38906C28.9475 7.41516 28.7573 8.64585 28.411 9.99279C27.6181 12.9669 26.3576 15.7955 24.677 18.372C24.7409 18.4175 24.8089 18.4547 24.8811 18.4836C25.2553 18.6386 26.1072 18.7719 27.8064 18.4216C28.2332 18.3317 28.547 18.2713 28.8717 18.5193C28.9499 18.5869 29.0116 18.6714 29.0523 18.7665C29.093 18.8615 29.1117 18.9647 29.1067 19.068C29.0887 19.2245 29.0312 19.3738 28.9398 19.502C28.612 19.9964 27.9626 20.4645 27.1307 20.8505C26.3963 21.1946 25.3418 21.3744 24.4064 21.3852C23.9783 21.4022 23.5502 21.3531 23.137 21.2395L23.1138 21.2302C22.9716 22.5989 22.6453 25.3021 22.4335 26.5358C22.2634 27.5309 21.965 28.3214 21.3976 28.9135C20.8301 29.5041 20.0277 29.8606 18.9469 30.0931C17.6095 30.3814 16.6354 30.0714 16.0061 29.5397C15.3784 29.0112 15.0908 28.309 14.9191 27.8781C14.8001 27.5805 14.7382 27.1961 14.6795 26.6815C14.6135 26.0659 14.5691 25.4481 14.5465 24.8293C14.5063 23.7443 14.4934 22.6583 14.5079 21.5712C13.9493 22.084 13.2552 22.4246 12.5087 22.5524C11.7904 22.6633 11.0571 22.6237 10.3549 22.4361C10.1224 22.3762 9.89777 22.2893 9.68538 22.1773C9.46583 22.0595 9.2571 21.9262 9.11794 21.6642C9.03616 21.5138 9.00988 21.3393 9.04373 21.1713C9.08642 21.0009 9.18565 20.85 9.32513 20.7435C9.58024 20.5358 9.91731 20.4196 10.4275 20.3142C11.3537 20.1235 11.6768 19.9933 11.8732 19.8368C12.0417 19.7019 12.2304 19.4307 12.5659 19.0323L12.5628 18.9796C11.9632 18.9611 11.3762 18.803 10.8481 18.5177C10.0253 19.393 9.23019 20.294 8.46391 21.2194C7.95832 21.827 7.39861 22.1757 6.80952 22.2005C6.22043 22.2253 5.68546 21.9277 5.23243 21.4875C4.32638 20.604 3.60278 19.0866 2.97349 17.3723C2.3442 15.6565 1.83242 13.7453 1.46907 12.1178C1.10418 10.4903 0.88926 9.17905 0.858337 8.5451C0.72382 5.85587 1.35156 4.04393 2.42615 2.90158C3.50382 1.75769 4.98041 1.32524 6.41989 1.24309C9.00198 1.09429 11.4557 1.99639 11.9521 2.19014C12.9091 1.53914 14.1399 1.13459 15.6783 1.15939C16.4096 1.17024 17.1363 1.26479 17.8445 1.44149L17.8708 1.43064C18.1831 1.32008 18.5006 1.22759 18.8232 1.15319C19.6979 0.948454 20.5922 0.839831 21.4903 0.829245L21.4919 0.826145ZM21.6883 1.69259H21.4996C20.7595 1.70292 20.0277 1.78559 19.3041 1.94059C20.7474 2.59264 22.0086 3.59072 22.9762 4.84682C23.5705 5.60481 24.0613 6.43881 24.4358 7.32681C24.576 7.66987 24.6729 7.95404 24.7265 8.1793C24.7527 8.2909 24.7728 8.38545 24.7775 8.4831C24.7849 8.54551 24.7797 8.60879 24.762 8.6691L24.7543 8.68615C24.7929 9.81764 24.5146 10.5849 24.4806 11.6652C24.4543 12.448 24.6538 13.3671 24.7033 14.3715C24.7497 15.3139 24.6368 16.3493 24.0261 17.3661L24.1729 17.5521C25.7887 15.0008 26.9529 12.1798 27.5745 9.77269C27.9069 8.4769 28.0832 7.30356 28.0986 6.37356C28.111 5.44357 27.9378 4.76932 27.7183 4.48722C25.9897 2.27074 23.6488 1.70809 21.6883 1.69259ZM15.516 2.02119C13.993 2.02584 12.9014 2.48619 12.0727 3.17748C11.2176 3.89048 10.644 4.87007 10.2683 5.86982C9.90434 6.87396 9.68212 7.92416 9.60808 8.98995L9.62354 8.9791C10.1606 8.67864 10.7366 8.45434 11.3351 8.3126C11.9814 8.16535 12.6803 8.11885 13.3111 8.36375C13.942 8.60865 14.463 9.18525 14.6532 10.0625C15.5608 14.2692 14.3718 15.8332 13.9327 17.0143C13.7667 17.4431 13.6245 17.8791 13.506 18.3224C13.5616 18.31 13.6173 18.2945 13.6729 18.2883C13.9822 18.2635 14.2249 18.3658 14.3687 18.4278C14.8094 18.6123 15.1109 18.9967 15.2748 19.4353C15.3181 19.5521 15.349 19.6746 15.3675 19.8027C15.3856 19.8555 15.3939 19.9112 15.3923 19.967C15.3436 21.5761 15.3492 23.1865 15.4093 24.7952C15.4402 25.4896 15.4835 26.1019 15.5376 26.5854C15.5933 27.0659 15.6721 27.4333 15.7232 27.5573C15.887 27.9711 16.1282 28.5121 16.5643 28.881C16.9987 29.2468 17.6249 29.4932 18.766 29.2468C19.7555 29.0344 20.3663 28.7384 20.776 28.3137C21.1811 27.889 21.4254 27.2969 21.58 26.3917C21.815 25.0355 22.2835 21.1016 22.3407 20.3622C22.3144 19.8042 22.3964 19.3749 22.5742 19.0478C22.7361 18.7605 22.9853 18.5324 23.2854 18.3968C23.4091 18.341 23.5235 18.3038 23.6163 18.2759C23.5169 18.133 23.4128 17.9934 23.304 17.8574C22.9506 17.4279 22.6616 16.9491 22.4459 16.4361C22.3423 16.2249 22.232 16.0171 22.115 15.813C21.9434 15.503 21.7269 15.1155 21.4996 14.68C21.0466 13.8073 20.5534 12.7518 20.2967 11.7226C20.0416 10.6934 20.0029 9.6301 20.6585 8.87835C21.2383 8.21185 22.2572 7.93595 23.7848 8.09095C23.7385 7.9561 23.7122 7.84295 23.6364 7.66161C23.2914 6.84635 22.8407 6.08025 22.2959 5.38312C21.0002 3.72463 18.9036 2.07854 15.6644 2.02584H15.516V2.02119ZM6.9595 2.08939C6.7956 2.08939 6.63274 2.09455 6.47091 2.10489C5.16904 2.17929 3.93829 2.55749 3.05853 3.49213C2.17721 4.42832 1.5974 5.96127 1.72419 8.4986C1.74738 8.9791 1.95611 10.326 2.31482 11.9241C2.67044 13.5237 3.17758 15.4054 3.78677 17.0685C4.39596 18.7316 5.13348 20.1778 5.83544 20.8613C6.18796 21.2039 6.4941 21.3418 6.77241 21.331C7.05227 21.3186 7.38933 21.1558 7.80061 20.6614C8.54895 19.7552 9.32616 18.8732 10.1322 18.0155C9.56044 17.5189 9.12284 16.8856 8.85988 16.1745C8.59692 15.4633 8.5171 14.6971 8.62781 13.9468C8.74312 13.1016 8.78863 12.2483 8.76387 11.3955C8.74841 10.7073 8.69893 10.2501 8.69893 9.96489V9.92614C8.69647 8.43874 8.95448 6.96245 9.46119 5.56447C9.82145 4.60347 10.358 3.62698 11.1635 2.83648C10.3734 2.57609 8.96796 2.17774 7.44809 2.10334C7.28486 2.09436 7.12142 2.08971 6.95795 2.08939H6.9595ZM22.9329 8.91245C22.0578 8.92485 21.5677 9.1496 21.3094 9.44565C20.9445 9.86569 20.9105 10.6019 21.1363 11.5087C21.362 12.417 21.829 13.4307 22.2665 14.2754C22.4861 14.6986 22.6994 15.0783 22.8695 15.3868C23.0427 15.6968 23.1695 15.9153 23.2468 16.1029C23.3143 16.2631 23.3907 16.4193 23.4756 16.571C23.8142 15.8533 23.8745 15.1496 23.8405 14.4165C23.7941 13.5082 23.5854 12.5797 23.6163 11.6389C23.6503 10.5399 23.8668 9.82539 23.8869 8.97445C23.5705 8.93407 23.2519 8.91337 22.9329 8.91245ZM12.3231 9.06125C12.0561 9.06457 11.7901 9.09679 11.53 9.15735C11.0123 9.28563 10.5134 9.48048 10.0456 9.73704C9.8869 9.82178 9.73641 9.91994 9.59416 10.0315L9.56633 10.0563C9.57406 10.2454 9.61271 10.7027 9.62818 11.3754C9.64364 12.1116 9.62354 13.0509 9.48284 14.0677C9.1736 16.2765 10.7739 18.1054 12.6525 18.1085C12.7607 17.6544 12.9416 17.1941 13.1225 16.7105C13.6451 15.2969 14.6749 14.2661 13.8075 10.2439C13.6668 9.58515 13.3854 9.3201 12.9988 9.16975C12.7822 9.0919 12.5531 9.05511 12.3231 9.06125ZM22.5247 9.32475H22.5881C22.6662 9.32563 22.744 9.33499 22.82 9.35265C22.8912 9.36815 22.951 9.39191 22.9994 9.42395C23.0242 9.43991 23.0455 9.4608 23.062 9.48532C23.0785 9.50984 23.0898 9.53748 23.0953 9.56655V9.57585C23.0975 9.63756 23.0814 9.69855 23.0489 9.75099C23.01 9.82148 22.9622 9.88661 22.9066 9.94474C22.7766 10.0894 22.6018 10.1861 22.4103 10.2191C22.2237 10.2405 22.0358 10.1931 21.8815 10.0858C21.8186 10.0431 21.7624 9.99143 21.7145 9.93234C21.6716 9.88755 21.643 9.83085 21.6326 9.76959C21.6297 9.7397 21.633 9.70952 21.6423 9.68098C21.6516 9.65243 21.6667 9.62613 21.6867 9.60375C21.7286 9.55489 21.7802 9.5153 21.8382 9.4875C22.053 9.38468 22.2868 9.32817 22.5247 9.32165V9.32475ZM12.4484 9.54175C12.5164 9.54175 12.588 9.54691 12.6633 9.55725C12.8597 9.58515 13.0344 9.63784 13.1689 9.71534C13.2349 9.74944 13.2916 9.79543 13.339 9.85329C13.3658 9.88326 13.3854 9.91736 13.3977 9.95559C13.4091 9.99383 13.4132 10.0326 13.4101 10.0718C13.3978 10.1466 13.364 10.2161 13.3127 10.2718C13.2608 10.3372 13.1986 10.3937 13.1287 10.4392C12.9614 10.5584 12.7556 10.6104 12.552 10.5849C12.3434 10.5514 12.1525 10.4475 12.0108 10.2904C11.9502 10.2277 11.8986 10.1567 11.8577 10.0796C11.8148 10.0113 11.7963 9.93042 11.8052 9.85019C11.8253 9.71069 11.9397 9.63784 12.0526 9.59909C12.1796 9.55726 12.3133 9.53939 12.4468 9.5464L12.4484 9.54175ZM24.1219 19.0277H24.1188C23.9286 19.0959 23.7725 19.1253 23.6411 19.1827C23.5086 19.2343 23.3993 19.3323 23.3334 19.4586C23.253 19.6074 23.1834 19.8709 23.2035 20.3188C23.2633 20.3602 23.3267 20.3907 23.3937 20.4103C23.6148 20.4769 23.9843 20.5203 24.3971 20.5141C25.2181 20.5048 26.2309 20.3126 26.7674 20.0631C27.2081 19.8569 27.6178 19.5888 27.9827 19.2679C26.186 19.6399 25.1718 19.5407 24.5502 19.2834C24.3955 19.2188 24.2512 19.1316 24.1219 19.0246V19.0277ZM13.775 19.1486H13.7472C13.6791 19.1548 13.5802 19.178 13.3884 19.3904C12.9401 19.8941 12.7823 20.2119 12.4128 20.5064C12.0417 20.8009 11.5624 20.959 10.6023 21.1574C10.3973 21.1941 10.1978 21.2566 10.0085 21.3434C10.0456 21.3744 10.041 21.3806 10.0982 21.41C10.2374 21.4875 10.4198 21.5573 10.5652 21.5945C10.9764 21.6968 11.6552 21.8177 12.3618 21.6968C13.0699 21.5759 13.8059 21.2364 14.4337 20.3545C14.5419 20.2026 14.5527 19.9778 14.4646 19.7345C14.3734 19.4942 14.177 19.285 14.0378 19.2276C13.9545 19.1889 13.8659 19.1612 13.775 19.1486Z"/>
</mask>
<path d="M21.5522 0C20.3512 0.0102417 19.1573 0.185472 18.0037 0.520797L17.9218 0.547147C17.1942 0.417309 16.4574 0.345783 15.7185 0.333248C14.2002 0.306898 12.8968 0.677346 11.8454 1.29114C10.8094 0.931545 8.66028 0.309998 6.39515 0.433997C4.81806 0.520797 3.09718 1.00129 1.8216 2.35134C0.549104 3.69983 -0.123477 5.78922 0.0187698 8.63035C0.0574239 9.41465 0.281618 10.6934 0.649605 12.3503C1.02068 14.0057 1.53865 15.9448 2.18649 17.7133C2.83433 19.4818 3.54557 21.0706 4.65417 22.1509C5.20924 22.6934 5.9715 23.146 6.87137 23.1088C7.5022 23.084 8.07274 22.8066 8.56442 22.3958C8.80407 22.712 9.06073 22.8515 9.29421 22.9786C9.58798 23.1398 9.87402 23.2499 10.1709 23.3227C10.7028 23.456 11.6135 23.6327 12.6803 23.4514C13.0437 23.3909 13.4271 23.2716 13.809 23.1026C13.8214 23.5289 13.8399 23.9458 13.8554 24.369C13.908 25.7066 13.942 26.9419 14.3424 28.0269C14.4074 28.2036 14.5836 29.115 15.2794 29.9195C15.9752 30.7239 17.3389 31.2292 18.8912 30.896C19.9859 30.6604 21.379 30.2372 22.3036 28.9166C23.219 27.6115 23.6318 25.7392 23.7122 22.7043C23.7308 22.5588 23.7545 22.414 23.7833 22.2703L23.9998 22.2904H24.0261C25.1949 22.3431 26.4628 22.1773 27.5219 21.6828C28.4604 21.2488 29.1701 20.8071 29.6866 20.0259C29.8629 19.7822 29.9698 19.495 29.9958 19.1951C30.0344 18.7921 29.8041 18.1628 29.4222 17.8714C28.6553 17.2871 28.1729 17.5103 27.6564 17.6172C27.1452 17.7298 26.6288 17.7929 26.1072 17.8063C27.5053 15.448 28.5714 12.9073 29.2753 10.2563C29.6355 8.8613 29.8381 7.57481 29.8551 6.44951C29.8705 5.32422 29.7793 4.32913 29.1067 3.46733C27.0055 0.774996 24.0508 0.0309999 21.7656 0.00465001H21.5522V0ZM21.4919 0.826145C23.655 0.805995 26.4164 1.41514 28.4001 3.95558C28.8454 4.52597 28.9784 5.35987 28.963 6.38906C28.9475 7.41516 28.7573 8.64585 28.411 9.99279C27.6181 12.9669 26.3576 15.7955 24.677 18.372C24.7409 18.4175 24.8089 18.4547 24.8811 18.4836C25.2553 18.6386 26.1072 18.7719 27.8064 18.4216C28.2332 18.3317 28.547 18.2713 28.8717 18.5193C28.9499 18.5869 29.0116 18.6714 29.0523 18.7665C29.093 18.8615 29.1117 18.9647 29.1067 19.068C29.0887 19.2245 29.0312 19.3738 28.9398 19.502C28.612 19.9964 27.9626 20.4645 27.1307 20.8505C26.3963 21.1946 25.3418 21.3744 24.4064 21.3852C23.9783 21.4022 23.5502 21.3531 23.137 21.2395L23.1138 21.2302C22.9716 22.5989 22.6453 25.3021 22.4335 26.5358C22.2634 27.5309 21.965 28.3214 21.3976 28.9135C20.8301 29.5041 20.0277 29.8606 18.9469 30.0931C17.6095 30.3814 16.6354 30.0714 16.0061 29.5397C15.3784 29.0112 15.0908 28.309 14.9191 27.8781C14.8001 27.5805 14.7382 27.1961 14.6795 26.6815C14.6135 26.0659 14.5691 25.4481 14.5465 24.8293C14.5063 23.7443 14.4934 22.6583 14.5079 21.5712C13.9493 22.084 13.2552 22.4246 12.5087 22.5524C11.7904 22.6633 11.0571 22.6237 10.3549 22.4361C10.1224 22.3762 9.89777 22.2893 9.68538 22.1773C9.46583 22.0595 9.2571 21.9262 9.11794 21.6642C9.03616 21.5138 9.00988 21.3393 9.04373 21.1713C9.08642 21.0009 9.18565 20.85 9.32513 20.7435C9.58024 20.5358 9.91731 20.4196 10.4275 20.3142C11.3537 20.1235 11.6768 19.9933 11.8732 19.8368C12.0417 19.7019 12.2304 19.4307 12.5659 19.0323L12.5628 18.9796C11.9632 18.9611 11.3762 18.803 10.8481 18.5177C10.0253 19.393 9.23019 20.294 8.46391 21.2194C7.95832 21.827 7.39861 22.1757 6.80952 22.2005C6.22043 22.2253 5.68546 21.9277 5.23243 21.4875C4.32638 20.604 3.60278 19.0866 2.97349 17.3723C2.3442 15.6565 1.83242 13.7453 1.46907 12.1178C1.10418 10.4903 0.88926 9.17905 0.858337 8.5451C0.72382 5.85587 1.35156 4.04393 2.42615 2.90158C3.50382 1.75769 4.98041 1.32524 6.41989 1.24309C9.00198 1.09429 11.4557 1.99639 11.9521 2.19014C12.9091 1.53914 14.1399 1.13459 15.6783 1.15939C16.4096 1.17024 17.1363 1.26479 17.8445 1.44149L17.8708 1.43064C18.1831 1.32008 18.5006 1.22759 18.8232 1.15319C19.6979 0.948454 20.5922 0.839831 21.4903 0.829245L21.4919 0.826145ZM21.6883 1.69259H21.4996C20.7595 1.70292 20.0277 1.78559 19.3041 1.94059C20.7474 2.59264 22.0086 3.59072 22.9762 4.84682C23.5705 5.60481 24.0613 6.43881 24.4358 7.32681C24.576 7.66987 24.6729 7.95404 24.7265 8.1793C24.7527 8.2909 24.7728 8.38545 24.7775 8.4831C24.7849 8.54551 24.7797 8.60879 24.762 8.6691L24.7543 8.68615C24.7929 9.81764 24.5146 10.5849 24.4806 11.6652C24.4543 12.448 24.6538 13.3671 24.7033 14.3715C24.7497 15.3139 24.6368 16.3493 24.0261 17.3661L24.1729 17.5521C25.7887 15.0008 26.9529 12.1798 27.5745 9.77269C27.9069 8.4769 28.0832 7.30356 28.0986 6.37356C28.111 5.44357 27.9378 4.76932 27.7183 4.48722C25.9897 2.27074 23.6488 1.70809 21.6883 1.69259ZM15.516 2.02119C13.993 2.02584 12.9014 2.48619 12.0727 3.17748C11.2176 3.89048 10.644 4.87007 10.2683 5.86982C9.90434 6.87396 9.68212 7.92416 9.60808 8.98995L9.62354 8.9791C10.1606 8.67864 10.7366 8.45434 11.3351 8.3126C11.9814 8.16535 12.6803 8.11885 13.3111 8.36375C13.942 8.60865 14.463 9.18525 14.6532 10.0625C15.5608 14.2692 14.3718 15.8332 13.9327 17.0143C13.7667 17.4431 13.6245 17.8791 13.506 18.3224C13.5616 18.31 13.6173 18.2945 13.6729 18.2883C13.9822 18.2635 14.2249 18.3658 14.3687 18.4278C14.8094 18.6123 15.1109 18.9967 15.2748 19.4353C15.3181 19.5521 15.349 19.6746 15.3675 19.8027C15.3856 19.8555 15.3939 19.9112 15.3923 19.967C15.3436 21.5761 15.3492 23.1865 15.4093 24.7952C15.4402 25.4896 15.4835 26.1019 15.5376 26.5854C15.5933 27.0659 15.6721 27.4333 15.7232 27.5573C15.887 27.9711 16.1282 28.5121 16.5643 28.881C16.9987 29.2468 17.6249 29.4932 18.766 29.2468C19.7555 29.0344 20.3663 28.7384 20.776 28.3137C21.1811 27.889 21.4254 27.2969 21.58 26.3917C21.815 25.0355 22.2835 21.1016 22.3407 20.3622C22.3144 19.8042 22.3964 19.3749 22.5742 19.0478C22.7361 18.7605 22.9853 18.5324 23.2854 18.3968C23.4091 18.341 23.5235 18.3038 23.6163 18.2759C23.5169 18.133 23.4128 17.9934 23.304 17.8574C22.9506 17.4279 22.6616 16.9491 22.4459 16.4361C22.3423 16.2249 22.232 16.0171 22.115 15.813C21.9434 15.503 21.7269 15.1155 21.4996 14.68C21.0466 13.8073 20.5534 12.7518 20.2967 11.7226C20.0416 10.6934 20.0029 9.6301 20.6585 8.87835C21.2383 8.21185 22.2572 7.93595 23.7848 8.09095C23.7385 7.9561 23.7122 7.84295 23.6364 7.66161C23.2914 6.84635 22.8407 6.08025 22.2959 5.38312C21.0002 3.72463 18.9036 2.07854 15.6644 2.02584H15.516V2.02119ZM6.9595 2.08939C6.7956 2.08939 6.63274 2.09455 6.47091 2.10489C5.16904 2.17929 3.93829 2.55749 3.05853 3.49213C2.17721 4.42832 1.5974 5.96127 1.72419 8.4986C1.74738 8.9791 1.95611 10.326 2.31482 11.9241C2.67044 13.5237 3.17758 15.4054 3.78677 17.0685C4.39596 18.7316 5.13348 20.1778 5.83544 20.8613C6.18796 21.2039 6.4941 21.3418 6.77241 21.331C7.05227 21.3186 7.38933 21.1558 7.80061 20.6614C8.54895 19.7552 9.32616 18.8732 10.1322 18.0155C9.56044 17.5189 9.12284 16.8856 8.85988 16.1745C8.59692 15.4633 8.5171 14.6971 8.62781 13.9468C8.74312 13.1016 8.78863 12.2483 8.76387 11.3955C8.74841 10.7073 8.69893 10.2501 8.69893 9.96489V9.92614C8.69647 8.43874 8.95448 6.96245 9.46119 5.56447C9.82145 4.60347 10.358 3.62698 11.1635 2.83648C10.3734 2.57609 8.96796 2.17774 7.44809 2.10334C7.28486 2.09436 7.12142 2.08971 6.95795 2.08939H6.9595ZM22.9329 8.91245C22.0578 8.92485 21.5677 9.1496 21.3094 9.44565C20.9445 9.86569 20.9105 10.6019 21.1363 11.5087C21.362 12.417 21.829 13.4307 22.2665 14.2754C22.4861 14.6986 22.6994 15.0783 22.8695 15.3868C23.0427 15.6968 23.1695 15.9153 23.2468 16.1029C23.3143 16.2631 23.3907 16.4193 23.4756 16.571C23.8142 15.8533 23.8745 15.1496 23.8405 14.4165C23.7941 13.5082 23.5854 12.5797 23.6163 11.6389C23.6503 10.5399 23.8668 9.82539 23.8869 8.97445C23.5705 8.93407 23.2519 8.91337 22.9329 8.91245ZM12.3231 9.06125C12.0561 9.06457 11.7901 9.09679 11.53 9.15735C11.0123 9.28563 10.5134 9.48048 10.0456 9.73704C9.8869 9.82178 9.73641 9.91994 9.59416 10.0315L9.56633 10.0563C9.57406 10.2454 9.61271 10.7027 9.62818 11.3754C9.64364 12.1116 9.62354 13.0509 9.48284 14.0677C9.1736 16.2765 10.7739 18.1054 12.6525 18.1085C12.7607 17.6544 12.9416 17.1941 13.1225 16.7105C13.6451 15.2969 14.6749 14.2661 13.8075 10.2439C13.6668 9.58515 13.3854 9.3201 12.9988 9.16975C12.7822 9.0919 12.5531 9.05511 12.3231 9.06125ZM22.5247 9.32475H22.5881C22.6662 9.32563 22.744 9.33499 22.82 9.35265C22.8912 9.36815 22.951 9.39191 22.9994 9.42395C23.0242 9.43991 23.0455 9.4608 23.062 9.48532C23.0785 9.50984 23.0898 9.53748 23.0953 9.56655V9.57585C23.0975 9.63756 23.0814 9.69855 23.0489 9.75099C23.01 9.82148 22.9622 9.88661 22.9066 9.94474C22.7766 10.0894 22.6018 10.1861 22.4103 10.2191C22.2237 10.2405 22.0358 10.1931 21.8815 10.0858C21.8186 10.0431 21.7624 9.99143 21.7145 9.93234C21.6716 9.88755 21.643 9.83085 21.6326 9.76959C21.6297 9.7397 21.633 9.70952 21.6423 9.68098C21.6516 9.65243 21.6667 9.62613 21.6867 9.60375C21.7286 9.55489 21.7802 9.5153 21.8382 9.4875C22.053 9.38468 22.2868 9.32817 22.5247 9.32165V9.32475ZM12.4484 9.54175C12.5164 9.54175 12.588 9.54691 12.6633 9.55725C12.8597 9.58515 13.0344 9.63784 13.1689 9.71534C13.2349 9.74944 13.2916 9.79543 13.339 9.85329C13.3658 9.88326 13.3854 9.91736 13.3977 9.95559C13.4091 9.99383 13.4132 10.0326 13.4101 10.0718C13.3978 10.1466 13.364 10.2161 13.3127 10.2718C13.2608 10.3372 13.1986 10.3937 13.1287 10.4392C12.9614 10.5584 12.7556 10.6104 12.552 10.5849C12.3434 10.5514 12.1525 10.4475 12.0108 10.2904C11.9502 10.2277 11.8986 10.1567 11.8577 10.0796C11.8148 10.0113 11.7963 9.93042 11.8052 9.85019C11.8253 9.71069 11.9397 9.63784 12.0526 9.59909C12.1796 9.55726 12.3133 9.53939 12.4468 9.5464L12.4484 9.54175ZM24.1219 19.0277H24.1188C23.9286 19.0959 23.7725 19.1253 23.6411 19.1827C23.5086 19.2343 23.3993 19.3323 23.3334 19.4586C23.253 19.6074 23.1834 19.8709 23.2035 20.3188C23.2633 20.3602 23.3267 20.3907 23.3937 20.4103C23.6148 20.4769 23.9843 20.5203 24.3971 20.5141C25.2181 20.5048 26.2309 20.3126 26.7674 20.0631C27.2081 19.8569 27.6178 19.5888 27.9827 19.2679C26.186 19.6399 25.1718 19.5407 24.5502 19.2834C24.3955 19.2188 24.2512 19.1316 24.1219 19.0246V19.0277ZM13.775 19.1486H13.7472C13.6791 19.1548 13.5802 19.178 13.3884 19.3904C12.9401 19.8941 12.7823 20.2119 12.4128 20.5064C12.0417 20.8009 11.5624 20.959 10.6023 21.1574C10.3973 21.1941 10.1978 21.2566 10.0085 21.3434C10.0456 21.3744 10.041 21.3806 10.0982 21.41C10.2374 21.4875 10.4198 21.5573 10.5652 21.5945C10.9764 21.6968 11.6552 21.8177 12.3618 21.6968C13.0699 21.5759 13.8059 21.2364 14.4337 20.3545C14.5419 20.2026 14.5527 19.9778 14.4646 19.7345C14.3734 19.4942 14.177 19.285 14.0378 19.2276C13.9545 19.1889 13.8659 19.1612 13.775 19.1486Z" fill="#E5E7EB" stroke="#E5E7EB" stroke-width="2" mask="url(#path-1-inside-1_296_59)"/>
</svg>
