<svg width="29" height="25" viewBox="0 0 29 25" fill="none" xmlns="http://www.w3.org/2000/svg">
<path d="M2.8875 1.15532e-08C2.12169 1.15532e-08 1.38724 0.304218 0.845729 0.845729C0.304218 1.38724 0 2.12169 0 2.8875V19.7016C0 20.4094 0.159375 21.1791 0.4725 21.8391C0.490009 21.8961 0.512925 21.9514 0.540938 22.0041C0.943051 22.7616 1.55413 23.3879 2.3016 23.8085C3.04908 24.2291 3.90156 24.4264 4.75781 24.3769H21.5644C22.1717 24.3744 22.7623 24.1773 23.2494 23.8145C23.7365 23.4518 24.0945 22.9424 24.2709 22.3612L27.9806 11.28L27.9853 11.265C28.1206 10.8384 28.155 10.3862 28.0858 9.94398C28.0166 9.5018 27.8458 9.0817 27.5867 8.71675C27.3276 8.3518 26.9874 8.05196 26.5927 7.84083C26.1981 7.62969 25.7599 7.51302 25.3125 7.5V6.5625C25.3125 4.96781 24.0947 3.75 22.5 3.75H14.8434C14.5766 3.74643 14.3216 3.63957 14.1319 3.45188L11.8369 1.11563L11.8294 1.10719C11.1161 0.397979 10.1511 -7.83017e-05 9.14531 1.15532e-08H2.8875ZM23.4375 7.5H9.26812C8.36418 7.50037 7.48242 7.77994 6.74339 8.30048C6.00437 8.82102 5.44417 9.55712 5.13937 10.4081L5.13656 10.4156C3.39375 15.4116 2.42156 18.0684 1.875 19.47V2.8875C1.875 2.32875 2.32875 1.875 2.8875 1.875H9.14531C9.65404 1.87506 10.1422 2.07585 10.5038 2.43375L12.7987 4.77L12.8072 4.77844C13.3484 5.31718 14.0798 5.62128 14.8434 5.625H22.5C23.0588 5.625 23.4375 6.00375 23.4375 6.5625V7.5ZM3.22969 22.1784C3.08926 22.0988 2.95596 22.0072 2.83125 21.9047L2.87062 21.8475C2.91437 21.7781 2.95562 21.7062 2.99437 21.6319C3.07125 21.4819 3.165 21.2756 3.285 20.9906C3.76031 19.8562 4.75594 17.2003 6.90563 11.0362C7.08073 10.55 7.40155 10.1295 7.82433 9.83225C8.24711 9.53496 8.75128 9.37529 9.26812 9.375H25.2291C25.3882 9.37546 25.5451 9.4132 25.687 9.48518C25.829 9.55717 25.9521 9.66141 26.0465 9.78955C26.1409 9.91769 26.204 10.0662 26.2307 10.2231C26.2574 10.38 26.247 10.541 26.2003 10.6931L22.4878 21.78L22.4831 21.7959L22.4794 21.81C22.4205 22.0092 22.2989 22.1841 22.1327 22.3088C21.9666 22.4334 21.7646 22.5011 21.5569 22.5019H4.72969L4.66875 22.5037C4.16783 22.5351 3.66841 22.4222 3.22969 22.1784Z" fill="#E5E7EB"/>
</svg>
