<svg width="38" height="35" viewBox="0 0 38 35" fill="none" xmlns="http://www.w3.org/2000/svg">
<path d="M15.1202 2.38055C16.3327 1.80078 17.6579 1.5 19 1.5C20.3421 1.5 21.6673 1.80078 22.8798 2.38055L34.589 7.91091C37.137 9.11324 37.137 13.2773 34.589 14.4797L22.8815 20.01C21.6689 20.5901 20.3433 20.891 19.0009 20.891C17.6585 20.891 16.3329 20.5901 15.1202 20.01L3.411 14.4797C0.863 13.2773 0.863 9.11324 3.411 7.91091L15.1202 2.38055Z" stroke="#654F4B" stroke-width="3"/>
<path d="M1.5 11.1953V20.8915M31.25 16.4842V25.5193C31.25 27.2963 30.3697 28.9605 28.8262 29.8209C26.2555 31.2577 22.143 33.2322 19 33.2322C15.857 33.2322 11.7445 31.2559 9.17375 29.8226C7.632 28.9605 6.75 27.2963 6.75 25.521V16.4842" stroke="#654F4B" stroke-width="3" stroke-linecap="round"/>
</svg>
