<svg width="30" height="30" viewBox="0 0 30 30" fill="none" xmlns="http://www.w3.org/2000/svg">
<path fill-rule="evenodd" clip-rule="evenodd" d="M15 0C6.71575 0 0 6.71568 0 15C0 23.2842 6.71575 30 15 30C23.2843 30 30 23.2842 30 15C30 6.71568 23.2843 0 15 0ZM15 27C8.38321 27 3.00002 21.6168 3.00002 15C3.00002 8.38314 8.38314 3.00002 15 3.00002C21.6169 3.00002 27 8.38314 27 15C27 21.6168 21.6169 27 15 27ZM16.8783 8.99999C16.8783 10.0876 16.0864 10.875 15.0152 10.875C13.9007 10.875 13.1282 10.0875 13.1282 8.97918C13.1282 7.91395 13.9216 7.12504 15.0152 7.12504C16.0864 7.12504 16.8783 7.91395 16.8783 8.99999ZM13.5033 13.5H16.5032V22.5H13.5033V13.5Z" fill="#654F4B"/>
</svg>
