<svg width="14" height="16" viewBox="0 0 14 16" fill="none" xmlns="http://www.w3.org/2000/svg">
<path d="M1 15.8496V16C0.999652 15.9631 1.00163 15.9264 1.00195 15.8896L1.00098 15.7803M1 15.8496C1.00036 15.8265 1.00035 15.8034 1.00098 15.7803M1 15.8496V15.5859L1.00098 15.7803M1 15.8496C0.999242 15.8983 0.995664 15.9471 0.996094 15.9961H0.00390625C0.00428539 15.2479 0.11379 14.5332 0.332031 13.8525C0.550661 13.1707 0.859974 12.5406 1.26074 11.9629C1.6615 11.3852 2.1456 10.8802 2.71289 10.4482C3.28016 10.0163 3.91815 9.67043 4.62598 9.41016L4.62402 9.40234L4.62305 9.40039L4.62695 9.40234C4.22108 9.18378 3.85679 8.91864 3.53418 8.60645C3.21151 8.29419 2.93764 7.94826 2.71387 7.56836C2.49015 7.18853 2.3163 6.77985 2.19141 6.34277C2.06651 5.90563 2.00391 5.45797 2.00391 5C2.00391 4.30788 2.1344 3.66023 2.39453 3.05664C2.65476 2.45292 3.0111 1.92184 3.46387 1.46387C3.91663 1.0059 4.44512 0.649544 5.04883 0.394531C5.57683 0.171533 6.1405 0.0436318 6.74023 0.0117188L7 0.00390625C7.69212 0.00390625 8.33977 0.134401 8.94336 0.394531C9.54708 0.654756 10.0782 1.0111 10.5361 1.46387C10.9941 1.91663 11.3505 2.44512 11.6055 3.04883C11.8604 3.65241 11.9909 4.30267 11.9961 5C11.9961 5.45799 11.9361 5.90302 11.8164 6.33496C11.6967 6.76683 11.5229 7.1729 11.2939 7.55273C11.0649 7.93266 10.7911 8.27855 10.4736 8.59082C10.1562 8.90301 9.79455 9.17076 9.38867 9.39453L9.39062 9.39844L9.39355 9.40332L9.38965 9.40234C10.0975 9.647 10.7355 9.98764 11.3027 10.4248C11.87 10.862 12.3541 11.3722 12.7549 11.9551C13.1557 12.538 13.4624 13.1707 13.6758 13.8525C13.8888 14.5333 13.9957 15.2479 13.9961 15.9961H13.0039C13.0034 15.1429 12.8526 14.3516 12.5508 13.623C12.2485 12.8935 11.8261 12.2578 11.2842 11.7158C10.7422 11.1739 10.1091 10.7541 9.38477 10.457C8.66031 10.16 7.86502 10.0065 7 9.99609C6.44241 9.99609 5.9056 10.0663 5.38965 10.207C4.87372 10.3477 4.39418 10.5464 3.95117 10.8018C3.50824 11.0571 3.10403 11.3667 2.73926 11.7314C2.37449 12.0962 2.06493 12.5004 1.80957 12.9434C1.55419 13.3864 1.35295 13.8685 1.20703 14.3896C1.08055 14.8414 1.0139 15.305 1.00098 15.7803M7 0.996094C6.44741 0.996094 5.92824 1.10004 5.44336 1.30859C4.95864 1.51711 4.53644 1.80406 4.17676 2.16895C3.81709 2.53383 3.53012 2.95865 3.31641 3.44336C3.10264 3.92825 2.99609 4.4474 2.99609 5C2.99609 5.55259 3.10004 6.07176 3.30859 6.55664C3.51711 7.04136 3.80406 7.46356 4.16895 7.82324C4.53383 8.18291 4.95865 8.46988 5.44336 8.68359C5.92825 8.89736 6.4474 9.00391 7 9.00391C7.55259 9.00391 8.07176 8.89996 8.55664 8.69141C9.04136 8.48289 9.46356 8.19594 9.82324 7.83105C10.1829 7.46617 10.4699 7.04135 10.6836 6.55664C10.8974 6.07175 11.0039 5.5526 11.0039 5C11.0039 4.44741 10.9 3.92824 10.6914 3.44336C10.4829 2.95864 10.1959 2.53644 9.83105 2.17676C9.46617 1.81709 9.04135 1.53012 8.55664 1.31641C8.07175 1.10264 7.5526 0.996094 7 0.996094Z" fill="#E5E7EB" stroke="#E5E7EB" stroke-width="0.0078125"/>
</svg>
