<svg width="50" height="50" viewBox="0 0 50 50" fill="none" xmlns="http://www.w3.org/2000/svg">
<rect width="50" height="50" rx="15" fill="#E5E7EB" fill-opacity="0.46"/>
<path d="M13.8875 13C13.1217 13 12.3872 13.3042 11.8457 13.8457C11.3042 14.3872 11 15.1217 11 15.8875V32.7016C11 33.4094 11.1594 34.1791 11.4725 34.8391C11.49 34.8961 11.5129 34.9514 11.5409 35.0041C11.9431 35.7616 12.5541 36.3879 13.3016 36.8085C14.0491 37.2291 14.9016 37.4264 15.7578 37.3769H32.5644C33.1717 37.3744 33.7623 37.1773 34.2494 36.8145C34.7365 36.4518 35.0945 35.9424 35.2709 35.3612L38.9806 24.28L38.9853 24.265C39.1206 23.8384 39.155 23.3862 39.0858 22.944C39.0166 22.5018 38.8458 22.0817 38.5867 21.7168C38.3276 21.3518 37.9874 21.052 37.5927 20.8408C37.1981 20.6297 36.7599 20.513 36.3125 20.5V19.5625C36.3125 17.9678 35.0947 16.75 33.5 16.75H25.8434C25.5766 16.7464 25.3216 16.6396 25.1319 16.4519L22.8369 14.1156L22.8294 14.1072C22.1161 13.398 21.1511 12.9999 20.1453 13H13.8875ZM34.4375 20.5H20.2681C19.3642 20.5004 18.4824 20.7799 17.7434 21.3005C17.0044 21.821 16.4442 22.5571 16.1394 23.4081L16.1366 23.4156C14.3938 28.4116 13.4216 31.0684 12.875 32.47V15.8875C12.875 15.3287 13.3287 14.875 13.8875 14.875H20.1453C20.654 14.8751 21.1422 15.0758 21.5038 15.4338L23.7987 17.77L23.8072 17.7784C24.3484 18.3172 25.0798 18.6213 25.8434 18.625H33.5C34.0588 18.625 34.4375 19.0037 34.4375 19.5625V20.5ZM14.2297 35.1784C14.0893 35.0988 13.956 35.0072 13.8312 34.9047L13.8706 34.8475C13.9144 34.7781 13.9556 34.7062 13.9944 34.6319C14.0712 34.4819 14.165 34.2756 14.285 33.9906C14.7603 32.8562 15.7559 30.2003 17.9056 24.0362C18.0807 23.55 18.4015 23.1295 18.8243 22.8322C19.2471 22.535 19.7513 22.3753 20.2681 22.375H36.2291C36.3882 22.3755 36.5451 22.4132 36.687 22.4852C36.829 22.5572 36.9521 22.6614 37.0465 22.7896C37.1409 22.9177 37.204 23.0662 37.2307 23.2231C37.2574 23.38 37.247 23.541 37.2003 23.6931L33.4878 34.78L33.4831 34.7959L33.4794 34.81C33.4205 35.0092 33.2989 35.1841 33.1327 35.3088C32.9666 35.4334 32.7646 35.5011 32.5569 35.5019H15.7297L15.6687 35.5037C15.1678 35.5351 14.6684 35.4222 14.2297 35.1784Z" fill="#E5E7EB"/>
</svg>
