<svg width="30" height="30" viewBox="0 0 30 30" fill="none" xmlns="http://www.w3.org/2000/svg">
<path d="M15 0.5C16.1726 0.5 17.0378 0.501047 17.7432 0.586914C18.4341 0.67105 18.935 0.833674 19.3799 1.13672L19.3877 1.1416C19.7745 1.39506 20.1399 1.75996 20.4102 2.17871L20.4141 2.18457L20.4189 2.19043C20.7124 2.61787 20.8706 3.10934 20.9531 3.79785C21.0372 4.49991 21.0381 5.36564 21.0381 6.53809V8.96191H23.4619C24.6344 8.96191 25.4997 8.96197 26.2051 9.04785C26.896 9.13199 27.3969 9.29462 27.8418 9.59766L27.8486 9.60254C28.2356 9.85606 28.6018 10.2217 28.8721 10.6406L28.8799 10.6523C29.1734 11.0798 29.3326 11.5712 29.415 12.2598C29.4991 12.9619 29.5 13.8275 29.5 15C29.5 16.1726 29.499 17.0378 29.4131 17.7432C29.329 18.4341 29.1663 18.935 28.8633 19.3799L28.8584 19.3877C28.6049 19.7745 28.24 20.1399 27.8213 20.4102L27.8154 20.4141L27.8096 20.4189C27.3821 20.7124 26.8907 20.8706 26.2021 20.9531C25.5001 21.0372 24.6344 21.0381 23.4619 21.0381H21.0381V23.4619C21.0381 24.6344 21.038 25.4997 20.9521 26.2051C20.868 26.896 20.7054 27.3969 20.4023 27.8418L20.3975 27.8486C20.1439 28.2356 19.7783 28.6018 19.3594 28.8721L19.3477 28.8799C18.9202 29.1734 18.4288 29.3326 17.7402 29.415C17.0381 29.4991 16.1725 29.5 15 29.5C13.8274 29.5 12.9622 29.499 12.2568 29.4131C11.5659 29.329 11.065 29.1663 10.6201 28.8633L10.6123 28.8584C10.2255 28.6049 9.86006 28.24 9.58984 27.8213L9.58594 27.8154L9.58105 27.8096L9.47754 27.6455C9.24945 27.2558 9.11904 26.8045 9.04688 26.2021C8.96277 25.5001 8.96191 24.6344 8.96191 23.4619V21.0381H6.53809C5.36557 21.0381 4.50027 21.038 3.79492 20.9521C3.10398 20.868 2.60308 20.7054 2.1582 20.4023L2.15137 20.3975L2.00684 20.2969C1.67394 20.0515 1.3644 19.7259 1.12793 19.3594L1.12012 19.3477L1.01562 19.1846C0.787417 18.7947 0.657141 18.3428 0.584961 17.7402C0.500885 17.0381 0.5 16.1725 0.5 15C0.5 13.8274 0.501047 12.9622 0.586914 12.2568C0.67105 11.5659 0.833674 11.065 1.13672 10.6201L1.1416 10.6123C1.39506 10.2255 1.75996 9.86006 2.17871 9.58984L2.18457 9.58594L2.19043 9.58105C2.61787 9.28759 3.10934 9.12937 3.79785 9.04688C4.49991 8.96277 5.36564 8.96191 6.53809 8.96191H8.96191V6.53809C8.96191 5.36557 8.96197 4.50027 9.04785 3.79492C9.13199 3.10398 9.29462 2.60308 9.59766 2.1582L9.60254 2.15137C9.85606 1.76442 10.2217 1.39822 10.6406 1.12793L10.6523 1.12012C11.0798 0.826631 11.5712 0.667447 12.2598 0.584961C12.9619 0.500885 13.8275 0.5 15 0.5ZM21.0381 15C21.0381 15.3546 20.7393 15.6542 20.3848 15.6543H10.2695V23.4619C10.2695 24.3544 10.2686 25.0988 10.3105 25.6787C10.35 26.2228 10.4321 26.728 10.6641 27.0869L10.6631 27.0879C10.8474 27.3952 11.0904 27.6149 11.3223 27.7695C11.6934 28.017 12.2071 28.1057 12.7715 28.1484C13.3543 28.1925 14.1 28.1924 15 28.1924C15.9002 28.1924 16.6445 28.1924 17.2227 28.1504C17.7666 28.1109 18.2676 28.0282 18.626 27.7959L18.627 27.7979C18.9342 27.6134 19.154 27.3705 19.3086 27.1387C19.556 26.7675 19.6448 26.2539 19.6875 25.6895C19.7315 25.1067 19.7305 24.3617 19.7305 23.4619V21.0381H15C14.6454 21.0381 14.3458 20.7393 14.3457 20.3848C14.3457 20.0301 14.6454 19.7305 15 19.7305H23.4619C24.3544 19.7305 25.0988 19.7314 25.6787 19.6895C26.223 19.65 26.728 19.5672 27.0869 19.335L27.0879 19.3369C27.3952 19.1526 27.6149 18.9096 27.7695 18.6777C28.017 18.3066 28.1057 17.7929 28.1484 17.2285C28.1925 16.6457 28.1924 15.9 28.1924 15C28.1924 14.0998 28.1924 13.3555 28.1504 12.7773C28.1108 12.2331 28.0285 11.7315 27.7959 11.373H27.7979C27.6134 11.0658 27.3705 10.846 27.1387 10.6914C26.7675 10.444 26.2539 10.3552 25.6895 10.3125C25.1067 10.2685 24.3617 10.2695 23.4619 10.2695H21.0381V15ZM16.5381 24.3457C16.7115 24.3457 16.8784 24.4155 17.001 24.5381C17.1234 24.6607 17.1924 24.8267 17.1924 25C17.1924 25.3254 16.9629 25.5905 16.6729 25.6543H16.5381C16.1836 25.6541 15.8848 25.3545 15.8848 25C15.8848 24.8267 15.9537 24.6607 16.0762 24.5381C16.1987 24.4156 16.3648 24.3458 16.5381 24.3457ZM15 1.80762C14.0696 1.80762 13.3247 1.80757 12.7539 1.84961C12.271 1.88519 11.8328 1.95393 11.4912 2.13281L11.373 2.20215C11.0658 2.38659 10.846 2.62946 10.6914 2.86133C10.444 3.23255 10.3552 3.74609 10.3125 4.31055C10.2685 4.89329 10.2695 5.63833 10.2695 6.53809V8.96191H15C15.3546 8.96191 15.6542 9.26067 15.6543 9.61523C15.6543 9.96986 15.3546 10.2695 15 10.2695H6.53809C5.6456 10.2695 4.90116 10.2686 4.32129 10.3105C3.77689 10.35 3.27103 10.4317 2.91211 10.6641V10.6631C2.60485 10.8474 2.3851 11.0904 2.23047 11.3223C1.98304 11.6934 1.89426 12.2071 1.85156 12.7715C1.8075 13.3543 1.80762 14.1 1.80762 15C1.80762 15.9002 1.80761 16.6445 1.84961 17.2227C1.88912 17.7664 1.97107 18.2676 2.20312 18.626L2.20215 18.627C2.38659 18.9342 2.62946 19.154 2.86133 19.3086C3.23255 19.556 3.74609 19.6448 4.31055 19.6875C4.89329 19.7315 5.63833 19.7305 6.53809 19.7305H8.96191V15C8.96191 14.6454 9.26067 14.3458 9.61523 14.3457H19.7305V6.53809C19.7305 5.6456 19.7314 4.90116 19.6895 4.32129C19.65 3.77667 19.5675 3.27106 19.335 2.91211H19.3369C19.1526 2.60484 18.9096 2.3851 18.6777 2.23047C18.3085 1.98433 17.8132 1.8946 17.252 1.85156C16.6764 1.80744 15.9303 1.80762 15 1.80762ZM13.4619 4.36133C13.6351 4.36143 13.8013 4.43032 13.9238 4.55273C14.0464 4.67536 14.1152 4.84222 14.1152 5.01562C14.1151 5.34092 13.8857 5.60515 13.5957 5.66895H13.4619C13.1074 5.66895 12.8078 5.37015 12.8076 5.01562C12.8076 4.84222 12.8764 4.67535 12.999 4.55273C13.1216 4.43016 13.2885 4.36133 13.4619 4.36133Z" fill="#242323" stroke="#242323"/>
</svg>
