<svg width="40" height="40" viewBox="0 0 40 40" fill="none" xmlns="http://www.w3.org/2000/svg">
<rect width="40" height="40" rx="10" fill="#DE7326" fill-opacity="0.5"/>
<path d="M15.1111 13.8889V11.4444C15.1111 10.7961 15.3687 10.1744 15.8271 9.71596C16.2855 9.25754 16.9072 9 17.5556 9H22.4444C23.0928 9 23.7145 9.25754 24.1729 9.71596C24.6313 10.1744 24.8889 10.7961 24.8889 11.4444V13.8889M20 20V20.0122M9 16.3333C9 15.685 9.25754 15.0633 9.71596 14.6048C10.1744 14.1464 10.7961 13.8889 11.4444 13.8889H28.5556C29.2039 13.8889 29.8256 14.1464 30.284 14.6048C30.7425 15.0633 31 15.685 31 16.3333V27.3333C31 27.9816 30.7425 28.6034 30.284 29.0618C29.8256 29.5202 29.2039 29.7778 28.5556 29.7778H11.4444C10.7961 29.7778 10.1744 29.5202 9.71596 29.0618C9.25754 28.6034 9 27.9816 9 27.3333V16.3333Z" stroke="#DE7326" stroke-width="3" stroke-linecap="round" stroke-linejoin="round"/>
<path d="M9 21.2236C12.4119 22.9429 16.1794 23.8385 20 23.8385C23.8206 23.8385 27.5881 22.9429 31 21.2236" stroke="#DE7326" stroke-width="3" stroke-linecap="round" stroke-linejoin="round"/>
</svg>
