<svg width="65" height="65" viewBox="0 0 65 65" fill="none" xmlns="http://www.w3.org/2000/svg">
<mask id="path-1-inside-1_196_52" fill="white">
<path d="M46.709 43.4688H43.0527V27.4727L32.084 34.3281L21.1152 27.4727V43.4688H17.459V21.5312H19.6527L32.084 29.3008L44.5152 21.5312H46.709M46.709 17.875H17.459C15.4298 17.875 13.8027 19.502 13.8027 21.5312V43.4688C13.8027 44.4384 14.1879 45.3684 14.8736 46.0541C15.5593 46.7398 16.4893 47.125 17.459 47.125H46.709C47.6787 47.125 48.6087 46.7398 49.2943 46.0541C49.98 45.3684 50.3652 44.4384 50.3652 43.4688V21.5312C50.3652 20.5616 49.98 19.6316 49.2943 18.9459C48.6087 18.2602 47.6787 17.875 46.709 17.875Z"/>
</mask>
<path d="M46.709 43.4688H43.0527V27.4727L32.084 34.3281L21.1152 27.4727V43.4688H17.459V21.5312H19.6527L32.084 29.3008L44.5152 21.5312H46.709M46.709 17.875H17.459C15.4298 17.875 13.8027 19.502 13.8027 21.5312V43.4688C13.8027 44.4384 14.1879 45.3684 14.8736 46.0541C15.5593 46.7398 16.4893 47.125 17.459 47.125H46.709C47.6787 47.125 48.6087 46.7398 49.2943 46.0541C49.98 45.3684 50.3652 44.4384 50.3652 43.4688V21.5312C50.3652 20.5616 49.98 19.6316 49.2943 18.9459C48.6087 18.2602 47.6787 17.875 46.709 17.875Z" fill="#242323"/>
<path d="M43.0527 43.4688H42.0527V44.4688H43.0527V43.4688ZM43.0527 27.4727H44.0527V25.6684L42.5227 26.6247L43.0527 27.4727ZM32.084 34.3281L31.554 35.1761L32.084 35.5074L32.614 35.1761L32.084 34.3281ZM21.1152 27.4727L21.6452 26.6247L20.1152 25.6684V27.4727H21.1152ZM21.1152 43.4688V44.4688H22.1152V43.4688H21.1152ZM17.459 43.4688H16.459V44.4688H17.459V43.4688ZM17.459 21.5312V20.5312H16.459V21.5312H17.459ZM19.6527 21.5312L20.1827 20.6833L19.9395 20.5312H19.6527V21.5312ZM32.084 29.3008L31.554 30.1488L32.084 30.48L32.614 30.1488L32.084 29.3008ZM44.5152 21.5312V20.5312H44.2284L43.9852 20.6833L44.5152 21.5312ZM46.709 17.875V16.875V17.875ZM13.8027 43.4688H12.8027H13.8027ZM46.709 43.4688V42.4688H43.0527V43.4688V44.4688H46.709V43.4688ZM43.0527 43.4688H44.0527V27.4727H43.0527H42.0527V43.4688H43.0527ZM43.0527 27.4727L42.5227 26.6247L31.554 33.4801L32.084 34.3281L32.614 35.1761L43.5827 28.3207L43.0527 27.4727ZM32.084 34.3281L32.614 33.4801L21.6452 26.6247L21.1152 27.4727L20.5852 28.3207L31.554 35.1761L32.084 34.3281ZM21.1152 27.4727H20.1152V43.4688H21.1152H22.1152V27.4727H21.1152ZM21.1152 43.4688V42.4688H17.459V43.4688V44.4688H21.1152V43.4688ZM17.459 43.4688H18.459V21.5312H17.459H16.459V43.4688H17.459ZM17.459 21.5312V22.5312H19.6527V21.5312V20.5312H17.459V21.5312ZM19.6527 21.5312L19.1227 22.3792L31.554 30.1488L32.084 29.3008L32.614 28.4528L20.1827 20.6833L19.6527 21.5312ZM32.084 29.3008L32.614 30.1488L45.0452 22.3792L44.5152 21.5312L43.9852 20.6833L31.554 28.4528L32.084 29.3008ZM44.5152 21.5312V22.5312H46.709V21.5312V20.5312H44.5152V21.5312ZM46.709 17.875V16.875H17.459V17.875V18.875H46.709V17.875ZM17.459 17.875V16.875C14.8775 16.875 12.8027 18.9497 12.8027 21.5312H13.8027H14.8027C14.8027 20.0543 15.9821 18.875 17.459 18.875V17.875ZM13.8027 21.5312H12.8027V43.4688H13.8027H14.8027V21.5312H13.8027ZM13.8027 43.4688H12.8027C12.8027 44.7037 13.2933 45.888 14.1665 46.7612L14.8736 46.0541L15.5807 45.347C15.0826 44.8489 14.8027 44.1732 14.8027 43.4688H13.8027ZM14.8736 46.0541L14.1665 46.7612C15.0397 47.6344 16.2241 48.125 17.459 48.125V47.125V46.125C16.7545 46.125 16.0789 45.8451 15.5807 45.347L14.8736 46.0541ZM17.459 47.125V48.125H46.709V47.125V46.125H17.459V47.125ZM46.709 47.125V48.125C47.9439 48.125 49.1282 47.6344 50.0014 46.7612L49.2943 46.0541L48.5872 45.347C48.0891 45.8451 47.4135 46.125 46.709 46.125V47.125ZM49.2943 46.0541L50.0014 46.7612C50.8747 45.888 51.3652 44.7037 51.3652 43.4688H50.3652H49.3652C49.3652 44.1732 49.0854 44.8489 48.5872 45.347L49.2943 46.0541ZM50.3652 43.4688H51.3652V21.5312H50.3652H49.3652V43.4688H50.3652ZM50.3652 21.5312H51.3652C51.3652 20.2963 50.8747 19.112 50.0014 18.2388L49.2943 18.9459L48.5872 19.653C49.0854 20.1511 49.3652 20.8268 49.3652 21.5312H50.3652ZM49.2943 18.9459L50.0014 18.2388C49.1282 17.3656 47.9439 16.875 46.709 16.875V17.875V18.875C47.4135 18.875 48.0891 19.1549 48.5872 19.653L49.2943 18.9459Z" fill="#242323" mask="url(#path-1-inside-1_196_52)"/>
<circle cx="32.5" cy="32.5" r="30" stroke="#242323" stroke-width="5"/>
</svg>
