<svg width="70" height="70" viewBox="0 0 70 70" fill="none" xmlns="http://www.w3.org/2000/svg">
<path d="M35.2812 17.5C37.6162 17.5 39.9287 17.9611 42.0859 18.8564C44.243 19.7518 46.2034 21.0643 47.8545 22.7188C49.5055 24.3732 50.8154 26.3373 51.709 28.499C52.6026 30.6608 53.0624 32.9784 53.0625 35.3184C53.0625 43.1796 47.9953 49.834 40.9541 52.2334C40.6286 52.2837 40.5092 52.1982 40.4658 52.1553C40.4013 52.0911 40.3516 51.9686 40.3516 51.8057V46.7861C40.3515 45.5008 40.0283 44.4921 39.5615 43.7705C41.3486 43.4908 43.1703 42.942 44.6162 41.7363C46.3355 40.3027 47.4442 38.012 47.4443 34.4033C47.4443 32.3592 46.7787 30.6825 45.6299 29.3291C45.8859 28.533 46.2687 26.6939 45.3418 24.4141L45.2539 24.1982L45.0322 24.126L44.8896 24.5703C45.0324 24.127 45.0317 24.1261 45.0312 24.126H45.0303L45.0283 24.125C45.0269 24.1246 45.025 24.1245 45.0234 24.124C45.0202 24.123 45.0167 24.1213 45.0127 24.1201C45.0045 24.1178 44.9938 24.1152 44.9824 24.1123C44.9598 24.1066 44.9306 24.1002 44.8955 24.0938C44.8249 24.0809 44.7295 24.0683 44.6084 24.0625C44.3653 24.0509 44.0217 24.0671 43.5723 24.1611C42.7061 24.3425 41.4506 24.8128 39.7598 25.9307C38.3314 25.5553 36.7967 25.3662 35.2812 25.3662C33.7655 25.3662 32.2303 25.5551 30.8018 25.9307C29.1113 24.8131 27.8563 24.3424 26.9902 24.1611C26.5408 24.0671 26.1972 24.0509 25.9541 24.0625C25.833 24.0683 25.7376 24.0809 25.667 24.0938C25.6319 24.1002 25.6027 24.1066 25.5801 24.1123C25.5687 24.1152 25.558 24.1178 25.5498 24.1201C25.5458 24.1213 25.5423 24.123 25.5391 24.124C25.5375 24.1245 25.5356 24.1246 25.5342 24.125L25.5322 24.126H25.5312C25.5308 24.1261 25.5305 24.1271 25.6836 24.6025L25.5303 24.126L25.3086 24.1982L25.2207 24.4141C24.2939 26.6936 24.6756 28.5329 24.9316 29.3291C23.7831 30.6824 23.1182 32.3595 23.1182 34.4033C23.1183 38.0024 24.2217 40.2969 25.9326 41.7373C27.3758 42.9523 29.1957 43.5086 30.9805 43.79C30.6939 44.2473 30.4653 44.8204 30.3369 45.5078C29.8349 45.6939 29.1179 45.886 28.373 45.8213C27.5804 45.7524 26.7232 45.3937 26.0342 44.3252L25.8984 44.1016C25.8979 44.1006 25.8971 44.0997 25.8965 44.0986C25.8936 44.0935 25.8896 44.0864 25.8848 44.0781C25.875 44.0614 25.8613 44.038 25.8438 44.0098C25.8086 43.9533 25.757 43.8752 25.6904 43.7822C25.5577 43.5967 25.3602 43.3489 25.0986 43.0957C24.579 42.5927 23.7752 42.0391 22.7021 41.9639H22.6895L22.6777 41.9629H22.6768H22.6475C22.6309 41.9629 22.6077 41.9631 22.5801 41.9639C22.5253 41.9653 22.4492 41.9689 22.3633 41.9775C22.2111 41.9929 21.9518 42.0307 21.7373 42.1494C21.625 42.2116 21.476 42.3223 21.3916 42.5117C21.3 42.7174 21.3221 42.929 21.3965 43.1055C21.4657 43.2693 21.5837 43.4158 21.7178 43.5469C21.8555 43.6815 22.0343 43.8237 22.2568 43.9756L22.2891 43.9971L22.3232 44.0137C22.3272 44.0158 22.3333 44.0195 22.3418 44.0244C22.3643 44.0374 22.4028 44.0598 22.4531 44.0947C22.5538 44.1646 22.7047 44.2824 22.8828 44.4629C23.2369 44.8217 23.7047 45.436 24.0996 46.4307C24.1025 46.4394 24.1061 46.4499 24.1104 46.4619C24.1222 46.4953 24.1399 46.5408 24.1631 46.5967C24.2095 46.7086 24.2801 46.8627 24.3818 47.041C24.5849 47.397 24.914 47.8575 25.4209 48.2793C26.3746 49.0728 27.8915 49.6736 30.2109 49.3096V51.8057C30.2109 51.9675 30.1616 52.086 30.0986 52.1484C30.0549 52.1918 29.9363 52.2758 29.6172 52.2314C22.581 49.8476 17.5 43.1766 17.5 35.3184C17.5001 30.5925 19.3735 26.0602 22.708 22.7188C24.3591 21.0643 26.3195 19.7518 28.4766 18.8564C30.6338 17.9611 32.9463 17.5 35.2812 17.5Z" fill="#E5E7EB" stroke="#E5E7EB"/>
<circle cx="35" cy="35" r="33.75" stroke="#E5E7EB" stroke-width="2.5"/>
</svg>
