<svg width="70" height="70" viewBox="0 0 70 70" fill="none" xmlns="http://www.w3.org/2000/svg">
<path d="M27.6035 17.5H42.959C48.5328 17.5 53.0625 22.0297 53.0625 27.6035V42.959C53.0625 45.6385 51.9982 48.2088 50.1035 50.1035C48.2088 51.9982 45.6385 53.0625 42.959 53.0625H27.6035C22.0297 53.0625 17.5 48.5328 17.5 42.959V27.6035C17.5 24.924 18.5643 22.3537 20.459 20.459C22.3537 18.5643 24.924 17.5 27.6035 17.5ZM27.2373 20.1562C25.3593 20.1563 23.5584 20.9025 22.2305 22.2305C20.9025 23.5584 20.1563 25.3593 20.1562 27.2373V43.3252C20.1564 47.2392 23.3233 50.4061 27.2373 50.4062H43.3252C45.2032 50.4062 47.0041 49.66 48.332 48.332C49.66 47.0041 50.4062 45.2032 50.4062 43.3252V27.2373C50.4061 23.3233 47.2392 20.1564 43.3252 20.1562H27.2373ZM35.2812 26.6406C37.5729 26.6406 39.7702 27.5514 41.3906 29.1719C43.0111 30.7923 43.9219 32.9896 43.9219 35.2812C43.9219 37.5729 43.0111 39.7702 41.3906 41.3906C39.7702 43.0111 37.5729 43.9219 35.2812 43.9219C32.9896 43.9219 30.7923 43.0111 29.1719 41.3906C27.5514 39.7702 26.6406 37.5729 26.6406 35.2812C26.6406 32.9896 27.5514 30.7923 29.1719 29.1719C30.7923 27.5514 32.9896 26.6406 35.2812 26.6406ZM35.2812 29.2969C33.6941 29.2969 32.1721 29.9275 31.0498 31.0498C29.9275 32.1721 29.2969 33.6941 29.2969 35.2812C29.2969 36.8684 29.9275 38.3904 31.0498 39.5127C32.1721 40.635 33.6941 41.2656 35.2812 41.2656C36.8684 41.2656 38.3904 40.635 39.5127 39.5127C40.635 38.3904 41.2656 36.8684 41.2656 35.2812C41.2656 33.6941 40.635 32.1721 39.5127 31.0498C38.3904 29.9275 36.8684 29.2969 35.2812 29.2969ZM44.8789 23.8984C45.3524 23.8984 45.8068 24.0861 46.1416 24.4209C46.4764 24.7557 46.6641 25.2101 46.6641 25.6836C46.6641 26.157 46.4764 26.6115 46.1416 26.9463C45.8068 27.2811 45.3524 27.4688 44.8789 27.4688C44.4055 27.4688 43.951 27.2811 43.6162 26.9463C43.2814 26.6115 43.0938 26.157 43.0938 25.6836C43.0938 25.2101 43.2814 24.7557 43.6162 24.4209C43.951 24.0861 44.4055 23.8984 44.8789 23.8984Z" fill="#E5E7EB" stroke="#E5E7EB"/>
<circle cx="35" cy="35" r="33.75" stroke="#E5E7EB" stroke-width="2.5"/>
</svg>
