<svg width="70" height="70" viewBox="0 0 70 70" fill="none" xmlns="http://www.w3.org/2000/svg">
<mask id="path-1-inside-1_334_40" fill="white">
<path d="M49.9062 45.5938H46.25V29.5977L35.2812 36.4531L24.3125 29.5977V45.5938H20.6562V23.6562H22.85L35.2812 31.4258L47.7125 23.6562H49.9062M49.9062 20H20.6562C18.627 20 17 21.627 17 23.6562V45.5938C17 46.5634 17.3852 47.4934 18.0709 48.1791C18.7566 48.8648 19.6866 49.25 20.6562 49.25H49.9062C50.8759 49.25 51.8059 48.8648 52.4916 48.1791C53.1773 47.4934 53.5625 46.5634 53.5625 45.5938V23.6562C53.5625 22.6866 53.1773 21.7566 52.4916 21.0709C51.8059 20.3852 50.8759 20 49.9062 20Z"/>
</mask>
<path d="M49.9062 45.5938H46.25V29.5977L35.2812 36.4531L24.3125 29.5977V45.5938H20.6562V23.6562H22.85L35.2812 31.4258L47.7125 23.6562H49.9062M49.9062 20H20.6562C18.627 20 17 21.627 17 23.6562V45.5938C17 46.5634 17.3852 47.4934 18.0709 48.1791C18.7566 48.8648 19.6866 49.25 20.6562 49.25H49.9062C50.8759 49.25 51.8059 48.8648 52.4916 48.1791C53.1773 47.4934 53.5625 46.5634 53.5625 45.5938V23.6562C53.5625 22.6866 53.1773 21.7566 52.4916 21.0709C51.8059 20.3852 50.8759 20 49.9062 20Z" fill="#E5E7EB"/>
<path d="M46.25 45.5938H45.25V46.5938H46.25V45.5938ZM46.25 29.5977H47.25V27.7934L45.72 28.7497L46.25 29.5977ZM35.2812 36.4531L34.7513 37.3011L35.2812 37.6324L35.8112 37.3011L35.2812 36.4531ZM24.3125 29.5977L24.8425 28.7497L23.3125 27.7934V29.5977H24.3125ZM24.3125 45.5938V46.5938H25.3125V45.5938H24.3125ZM20.6562 45.5938H19.6562V46.5938H20.6562V45.5938ZM20.6562 23.6562V22.6562H19.6562V23.6562H20.6562ZM22.85 23.6562L23.38 22.8083L23.1368 22.6562H22.85V23.6562ZM35.2812 31.4258L34.7513 32.2738L35.2812 32.605L35.8112 32.2738L35.2812 31.4258ZM47.7125 23.6562V22.6562H47.4257L47.1825 22.8083L47.7125 23.6562ZM49.9062 20V19V20ZM17 45.5938H16H17ZM49.9062 45.5938V44.5938H46.25V45.5938V46.5938H49.9062V45.5938ZM46.25 45.5938H47.25V29.5977H46.25H45.25V45.5938H46.25ZM46.25 29.5977L45.72 28.7497L34.7513 35.6051L35.2812 36.4531L35.8112 37.3011L46.78 30.4457L46.25 29.5977ZM35.2812 36.4531L35.8112 35.6051L24.8425 28.7497L24.3125 29.5977L23.7825 30.4457L34.7513 37.3011L35.2812 36.4531ZM24.3125 29.5977H23.3125V45.5938H24.3125H25.3125V29.5977H24.3125ZM24.3125 45.5938V44.5938H20.6562V45.5938V46.5938H24.3125V45.5938ZM20.6562 45.5938H21.6562V23.6562H20.6562H19.6562V45.5938H20.6562ZM20.6562 23.6562V24.6562H22.85V23.6562V22.6562H20.6562V23.6562ZM22.85 23.6562L22.32 24.5042L34.7513 32.2738L35.2812 31.4258L35.8112 30.5778L23.38 22.8083L22.85 23.6562ZM35.2812 31.4258L35.8112 32.2738L48.2425 24.5042L47.7125 23.6562L47.1825 22.8083L34.7513 30.5778L35.2812 31.4258ZM47.7125 23.6562V24.6562H49.9062V23.6562V22.6562H47.7125V23.6562ZM49.9062 20V19H20.6562V20V21H49.9062V20ZM20.6562 20V19C18.0747 19 16 21.0747 16 23.6562H17H18C18 22.1793 19.1793 21 20.6562 21V20ZM17 23.6562H16V45.5938H17H18V23.6562H17ZM17 45.5938H16C16 46.8287 16.4906 48.013 17.3638 48.8862L18.0709 48.1791L18.778 47.472C18.2799 46.9739 18 46.2982 18 45.5938H17ZM18.0709 48.1791L17.3638 48.8862C18.237 49.7594 19.4213 50.25 20.6562 50.25V49.25V48.25C19.9518 48.25 19.2761 47.9701 18.778 47.472L18.0709 48.1791ZM20.6562 49.25V50.25H49.9062V49.25V48.25H20.6562V49.25ZM49.9062 49.25V50.25C51.1412 50.25 52.3255 49.7594 53.1987 48.8862L52.4916 48.1791L51.7845 47.472C51.2864 47.9701 50.6107 48.25 49.9062 48.25V49.25ZM52.4916 48.1791L53.1987 48.8862C54.0719 48.013 54.5625 46.8287 54.5625 45.5938H53.5625H52.5625C52.5625 46.2982 52.2826 46.9739 51.7845 47.472L52.4916 48.1791ZM53.5625 45.5938H54.5625V23.6562H53.5625H52.5625V45.5938H53.5625ZM53.5625 23.6562H54.5625C54.5625 22.4213 54.0719 21.237 53.1987 20.3638L52.4916 21.0709L51.7845 21.778C52.2826 22.2761 52.5625 22.9518 52.5625 23.6562H53.5625ZM52.4916 21.0709L53.1987 20.3638C52.3255 19.4906 51.1412 19 49.9062 19V20V21C50.6107 21 51.2864 21.2799 51.7845 21.778L52.4916 21.0709Z" fill="#E5E7EB" mask="url(#path-1-inside-1_334_40)"/>
<circle cx="35" cy="35" r="33.75" stroke="#E5E7EB" stroke-width="2.5"/>
</svg>
