<svg width="65" height="65" viewBox="0 0 65 65" fill="none" xmlns="http://www.w3.org/2000/svg">
<path d="M24.416 14.3125H39.7715C45.3453 14.3125 49.875 18.8422 49.875 24.416V39.7715C49.875 42.451 48.8107 45.0213 46.916 46.916C45.0213 48.8107 42.451 49.875 39.7715 49.875H24.416C18.8422 49.875 14.3125 45.3453 14.3125 39.7715V24.416C14.3125 21.7365 15.3768 19.1662 17.2715 17.2715C19.1662 15.3768 21.7365 14.3125 24.416 14.3125ZM24.0498 16.9688C22.1718 16.9688 20.3709 17.715 19.043 19.043C17.715 20.3709 16.9688 22.1718 16.9688 24.0498V40.1377C16.9689 44.0517 20.1358 47.2186 24.0498 47.2188H40.1377C42.0157 47.2187 43.8166 46.4725 45.1445 45.1445C46.4725 43.8166 47.2187 42.0157 47.2188 40.1377V24.0498C47.2186 20.1358 44.0517 16.9689 40.1377 16.9688H24.0498ZM32.0938 23.4531C34.3854 23.4531 36.5827 24.3639 38.2031 25.9844C39.8236 27.6048 40.7344 29.8021 40.7344 32.0938C40.7344 34.3854 39.8236 36.5827 38.2031 38.2031C36.5827 39.8236 34.3854 40.7344 32.0938 40.7344C29.8021 40.7344 27.6048 39.8236 25.9844 38.2031C24.3639 36.5827 23.4531 34.3854 23.4531 32.0938C23.4531 29.8021 24.3639 27.6048 25.9844 25.9844C27.6048 24.3639 29.8021 23.4531 32.0938 23.4531ZM32.0938 26.1094C30.5066 26.1094 28.9846 26.74 27.8623 27.8623C26.74 28.9846 26.1094 30.5066 26.1094 32.0938C26.1094 33.6809 26.74 35.2029 27.8623 36.3252C28.9846 37.4475 30.5066 38.0781 32.0938 38.0781C33.6809 38.0781 35.2029 37.4475 36.3252 36.3252C37.4475 35.2029 38.0781 33.6809 38.0781 32.0938C38.0781 30.5066 37.4475 28.9846 36.3252 27.8623C35.2029 26.74 33.6809 26.1094 32.0938 26.1094ZM41.6914 20.7109C42.1649 20.7109 42.6193 20.8986 42.9541 21.2334C43.2889 21.5682 43.4766 22.0226 43.4766 22.4961C43.4766 22.9695 43.2889 23.424 42.9541 23.7588C42.6193 24.0936 42.1649 24.2812 41.6914 24.2812C41.218 24.2812 40.7635 24.0936 40.4287 23.7588C40.0939 23.424 39.9062 22.9695 39.9062 22.4961C39.9062 22.0226 40.0939 21.5682 40.4287 21.2334C40.7635 20.8986 41.218 20.7109 41.6914 20.7109Z" fill="#E5E7EB" stroke="#E5E7EB"/>
<circle cx="32.5" cy="32.5" r="30" stroke="#E5E7EB" stroke-width="5"/>
</svg>
