<svg width="65" height="65" viewBox="0 0 65 65" fill="none" xmlns="http://www.w3.org/2000/svg">
<path d="M32.0938 15.1255C34.4287 15.1255 36.7412 15.5865 38.8984 16.4819C41.0555 17.3773 43.0159 18.6898 44.667 20.3442C46.318 21.9987 47.6279 23.9628 48.5215 26.1245C49.4151 28.2863 49.8749 30.6039 49.875 32.9438C49.875 40.8051 44.8078 47.4595 37.7666 49.8589C37.4411 49.9092 37.3217 49.8237 37.2783 49.7808C37.2138 49.7166 37.1641 49.5941 37.1641 49.4312V44.4116C37.164 43.1263 36.8408 42.1176 36.374 41.396C38.1611 41.1163 39.9828 40.5675 41.4287 39.3618C43.148 37.9282 44.2567 35.6375 44.2568 32.0288C44.2568 29.9847 43.5912 28.308 42.4424 26.9546C42.6984 26.1585 43.0812 24.3194 42.1543 22.0396L42.0664 21.8237L41.8447 21.7515L41.7021 22.1958C41.8449 21.7525 41.8442 21.7516 41.8438 21.7515H41.8428L41.8408 21.7505C41.8394 21.75 41.8375 21.75 41.8359 21.7495C41.8327 21.7485 41.8292 21.7467 41.8252 21.7456C41.817 21.7432 41.8063 21.7407 41.7949 21.7378C41.7723 21.7321 41.7431 21.7256 41.708 21.7192C41.6374 21.7064 41.542 21.6938 41.4209 21.688C41.1778 21.6764 40.8342 21.6926 40.3848 21.7866C39.5186 21.9679 38.2631 22.4383 36.5723 23.5562C35.1439 23.1808 33.6092 22.9917 32.0938 22.9917C30.578 22.9917 29.0428 23.1806 27.6143 23.5562C25.9238 22.4386 24.6688 21.9679 23.8027 21.7866C23.3533 21.6926 23.0097 21.6764 22.7666 21.688C22.6455 21.6938 22.5501 21.7064 22.4795 21.7192C22.4444 21.7256 22.4152 21.7321 22.3926 21.7378C22.3812 21.7407 22.3705 21.7432 22.3623 21.7456C22.3583 21.7467 22.3548 21.7485 22.3516 21.7495C22.35 21.75 22.3481 21.75 22.3467 21.7505L22.3447 21.7515H22.3438C22.3433 21.7516 22.343 21.7526 22.4961 22.228L22.3428 21.7515L22.1211 21.8237L22.0332 22.0396C21.1064 24.3191 21.4881 26.1584 21.7441 26.9546C20.5956 28.3079 19.9307 29.985 19.9307 32.0288C19.9308 35.6279 21.0342 37.9224 22.7451 39.3628C24.1883 40.5778 26.0082 41.1341 27.793 41.4155C27.5064 41.8728 27.2778 42.4459 27.1494 43.1333C26.6474 43.3194 25.9304 43.5115 25.1855 43.4468C24.3929 43.3779 23.5357 43.0192 22.8467 41.9507L22.7109 41.7271C22.7104 41.7261 22.7096 41.7252 22.709 41.7241C22.7061 41.719 22.7021 41.7119 22.6973 41.7036C22.6875 41.6869 22.6738 41.6635 22.6562 41.6353C22.6211 41.5788 22.5695 41.5007 22.5029 41.4077C22.3702 41.2222 22.1727 40.9743 21.9111 40.7212C21.3915 40.2182 20.5877 39.6646 19.5146 39.5894H19.502L19.4902 39.5884H19.4893H19.46C19.4434 39.5884 19.4202 39.5886 19.3926 39.5894C19.3378 39.5908 19.2617 39.5944 19.1758 39.603C19.0236 39.6184 18.7643 39.6562 18.5498 39.7749C18.4375 39.8371 18.2885 39.9478 18.2041 40.1372C18.1125 40.3429 18.1346 40.5545 18.209 40.731C18.2782 40.8948 18.3962 41.0413 18.5303 41.1724C18.668 41.3069 18.8468 41.4491 19.0693 41.6011L19.1016 41.6226L19.1357 41.6392C19.1397 41.6413 19.1458 41.645 19.1543 41.6499C19.1768 41.6629 19.2153 41.6853 19.2656 41.7202C19.3663 41.7901 19.5172 41.9079 19.6953 42.0884C20.0494 42.4472 20.5172 43.0614 20.9121 44.0562C20.915 44.0649 20.9186 44.0754 20.9229 44.0874C20.9347 44.1208 20.9524 44.1663 20.9756 44.2222C21.022 44.3341 21.0926 44.4882 21.1943 44.6665C21.3974 45.0225 21.7265 45.483 22.2334 45.9048C23.1871 46.6982 24.704 47.2991 27.0234 46.9351V49.4312C27.0234 49.593 26.9741 49.7115 26.9111 49.7739C26.8674 49.8172 26.7488 49.9013 26.4297 49.8569C19.3935 47.4731 14.3125 40.8021 14.3125 32.9438C14.3126 28.2179 16.186 23.6857 19.5205 20.3442C21.1716 18.6898 23.132 17.3773 25.2891 16.4819C27.4463 15.5865 29.7588 15.1255 32.0938 15.1255Z" fill="#E5E7EB" stroke="#E5E7EB"/>
<circle cx="32.5" cy="32.5" r="30" stroke="#E5E7EB" stroke-width="5"/>
</svg>
