<svg width="65" height="65" viewBox="0 0 65 65" fill="none" xmlns="http://www.w3.org/2000/svg">
<path d="M42.2222 20C42.9589 20 43.6655 20.2927 44.1864 20.8136C44.7073 21.3345 45 22.0411 45 22.7778V42.2222C45 42.9589 44.7073 43.6655 44.1864 44.1864C43.6655 44.7073 42.9589 45 42.2222 45H22.7778C22.0411 45 21.3345 44.7073 20.8136 44.1864C20.2927 43.6655 20 42.9589 20 42.2222V22.7778C20 22.0411 20.2927 21.3345 20.8136 20.8136C21.3345 20.2927 22.0411 20 22.7778 20H42.2222ZM41.5278 41.5278V34.1667C41.5278 32.9658 41.0507 31.8142 40.2016 30.965C39.3525 30.1159 38.2008 29.6389 37 29.6389C35.8194 29.6389 34.4444 30.3611 33.7778 31.4444V29.9028H29.9028V41.5278H33.7778V34.6806C33.7778 33.6111 34.6389 32.7361 35.7083 32.7361C36.224 32.7361 36.7186 32.941 37.0833 33.3056C37.4479 33.6703 37.6528 34.1649 37.6528 34.6806V41.5278H41.5278ZM25.3889 27.7222C26.0077 27.7222 26.6012 27.4764 27.0388 27.0388C27.4764 26.6012 27.7222 26.0077 27.7222 25.3889C27.7222 24.0972 26.6806 23.0417 25.3889 23.0417C24.7664 23.0417 24.1693 23.289 23.7292 23.7292C23.289 24.1693 23.0417 24.7664 23.0417 25.3889C23.0417 26.6806 24.0972 27.7222 25.3889 27.7222ZM27.3194 41.5278V29.9028H23.4722V41.5278H27.3194Z" fill="#E5E7EB"/>
<circle cx="32.5" cy="32.5" r="30" stroke="#E5E7EB" stroke-width="5"/>
</svg>
