<svg width="70" height="70" viewBox="0 0 70 70" fill="none" xmlns="http://www.w3.org/2000/svg">
<path d="M49.4978 17C50.5751 17 51.6084 17.428 52.3702 18.1898C53.132 18.9516 53.56 19.9849 53.56 21.0622V49.4978C53.56 50.5751 53.132 51.6084 52.3702 52.3702C51.6084 53.132 50.5751 53.56 49.4978 53.56H21.0622C19.9849 53.56 18.9516 53.132 18.1898 52.3702C17.428 51.6084 17 50.5751 17 49.4978V21.0622C17 19.9849 17.428 18.9516 18.1898 18.1898C18.9516 17.428 19.9849 17 21.0622 17H49.4978ZM48.4822 48.4822V37.7173C48.4822 35.9612 47.7846 34.277 46.5429 33.0353C45.3011 31.7935 43.6169 31.0959 41.8608 31.0959C40.1344 31.0959 38.1236 32.1521 37.1486 33.7364V31.4818H31.4818V48.4822H37.1486V38.4688C37.1486 36.9049 38.4079 35.6253 39.9719 35.6253C40.726 35.6253 41.4493 35.9249 41.9826 36.4581C42.5158 36.9914 42.8154 37.7147 42.8154 38.4688V48.4822H48.4822ZM24.8807 28.293C25.7857 28.293 26.6536 27.9335 27.2935 27.2935C27.9335 26.6536 28.293 25.7857 28.293 24.8807C28.293 22.9918 26.7696 21.4481 24.8807 21.4481C23.9703 21.4481 23.0972 21.8098 22.4535 22.4535C21.8098 23.0972 21.4481 23.9703 21.4481 24.8807C21.4481 26.7696 22.9918 28.293 24.8807 28.293ZM27.704 48.4822V31.4818H22.0778V48.4822H27.704Z" fill="#E5E7EB"/>
<circle cx="35" cy="35" r="33.75" stroke="#E5E7EB" stroke-width="2.5"/>
</svg>
